<?xml version="1.0" standalone="no"?>
<!DOCTYPE svg PUBLIC "-//W3C//DTD SVG 1.1//EN" "http://www.w3.org/Graphics/SVG/1.1/DTD/svg11.dtd">
<svg version="1.1" width="1200" height="1190" onload="init(evt)" viewBox="0 0 1200 1190" xmlns="http://www.w3.org/2000/svg" xmlns:xlink="http://www.w3.org/1999/xlink">
<!-- Flame graph stack visualization. See https://github.com/brendangregg/FlameGraph for latest version, and http://www.brendangregg.com/flamegraphs.html for examples. -->
<!-- NOTES:  -->
<defs>
	<linearGradient id="background" y1="0" y2="1" x1="0" x2="0" >
		<stop stop-color="#eeeeee" offset="5%" />
		<stop stop-color="#eeeeb0" offset="95%" />
	</linearGradient>
</defs>
<style type="text/css">
	text { font-family:Verdana; font-size:12px; fill:rgb(0,0,0); }
	#search, #ignorecase { opacity:0.1; cursor:pointer; }
	#search:hover, #search.show, #ignorecase:hover, #ignorecase.show { opacity:1; }
	#subtitle { text-anchor:middle; font-color:rgb(160,160,160); }
	#title { text-anchor:middle; font-size:17px}
	#unzoom { cursor:pointer; }
	#frames > *:hover { stroke:black; stroke-width:0.5; cursor:pointer; }
	.hide { display:none; }
	.parent { opacity:0.5; }
</style>
<script type="text/ecmascript">
<![CDATA[
	"use strict";
	var details, searchbtn, unzoombtn, matchedtxt, svg, searching, currentSearchTerm, ignorecase, ignorecaseBtn;
	function init(evt) {
		details = document.getElementById("details").firstChild;
		searchbtn = document.getElementById("search");
		ignorecaseBtn = document.getElementById("ignorecase");
		unzoombtn = document.getElementById("unzoom");
		matchedtxt = document.getElementById("matched");
		svg = document.getElementsByTagName("svg")[0];
		searching = 0;
		currentSearchTerm = null;

		// use GET parameters to restore a flamegraphs state.
		var params = get_params();
		if (params.x && params.y)
			zoom(find_group(document.querySelector('[x="' + params.x + '"][y="' + params.y + '"]')));
                if (params.s) search(params.s);
	}

	// event listeners
	window.addEventListener("click", function(e) {
		var target = find_group(e.target);
		if (target) {
			if (target.nodeName == "a") {
				if (e.ctrlKey === false) return;
				e.preventDefault();
			}
			if (target.classList.contains("parent")) unzoom(true);
			zoom(target);
			if (!document.querySelector('.parent')) {
				// we have basically done a clearzoom so clear the url
				var params = get_params();
				if (params.x) delete params.x;
				if (params.y) delete params.y;
				history.replaceState(null, null, parse_params(params));
				unzoombtn.classList.add("hide");
				return;
			}

			// set parameters for zoom state
			var el = target.querySelector("rect");
			if (el && el.attributes && el.attributes.y && el.attributes._orig_x) {
				var params = get_params()
				params.x = el.attributes._orig_x.value;
				params.y = el.attributes.y.value;
				history.replaceState(null, null, parse_params(params));
			}
		}
		else if (e.target.id == "unzoom") clearzoom();
		else if (e.target.id == "search") search_prompt();
		else if (e.target.id == "ignorecase") toggle_ignorecase();
	}, false)

	// mouse-over for info
	// show
	window.addEventListener("mouseover", function(e) {
		var target = find_group(e.target);
		if (target) details.nodeValue = "Function: " + g_to_text(target);
	}, false)

	// clear
	window.addEventListener("mouseout", function(e) {
		var target = find_group(e.target);
		if (target) details.nodeValue = ' ';
	}, false)

	// ctrl-F for search
	// ctrl-I to toggle case-sensitive search
	window.addEventListener("keydown",function (e) {
		if (e.keyCode === 114 || (e.ctrlKey && e.keyCode === 70)) {
			e.preventDefault();
			search_prompt();
		}
		else if (e.ctrlKey && e.keyCode === 73) {
			e.preventDefault();
			toggle_ignorecase();
		}
	}, false)

	// functions
	function get_params() {
		var params = {};
		var paramsarr = window.location.search.substr(1).split('&');
		for (var i = 0; i < paramsarr.length; ++i) {
			var tmp = paramsarr[i].split("=");
			if (!tmp[0] || !tmp[1]) continue;
			params[tmp[0]]  = decodeURIComponent(tmp[1]);
		}
		return params;
	}
	function parse_params(params) {
		var uri = "?";
		for (var key in params) {
			uri += key + '=' + encodeURIComponent(params[key]) + '&';
		}
		if (uri.slice(-1) == "&")
			uri = uri.substring(0, uri.length - 1);
		if (uri == '?')
			uri = window.location.href.split('?')[0];
		return uri;
	}
	function find_child(node, selector) {
		var children = node.querySelectorAll(selector);
		if (children.length) return children[0];
	}
	function find_group(node) {
		var parent = node.parentElement;
		if (!parent) return;
		if (parent.id == "frames") return node;
		return find_group(parent);
	}
	function orig_save(e, attr, val) {
		if (e.attributes["_orig_" + attr] != undefined) return;
		if (e.attributes[attr] == undefined) return;
		if (val == undefined) val = e.attributes[attr].value;
		e.setAttribute("_orig_" + attr, val);
	}
	function orig_load(e, attr) {
		if (e.attributes["_orig_"+attr] == undefined) return;
		e.attributes[attr].value = e.attributes["_orig_" + attr].value;
		e.removeAttribute("_orig_"+attr);
	}
	function g_to_text(e) {
		var text = find_child(e, "title").firstChild.nodeValue;
		return (text)
	}
	function g_to_func(e) {
		var func = g_to_text(e);
		// if there's any manipulation we want to do to the function
		// name before it's searched, do it here before returning.
		return (func);
	}
	function update_text(e) {
		var r = find_child(e, "rect");
		var t = find_child(e, "text");
		var w = parseFloat(r.attributes.width.value) -3;
		var txt = find_child(e, "title").textContent.replace(/\([^(]*\)$/,"");
		t.attributes.x.value = parseFloat(r.attributes.x.value) + 3;

		// Smaller than this size won't fit anything
		if (w < 2 * 12 * 0.59) {
			t.textContent = "";
			return;
		}

		t.textContent = txt;
		var sl = t.getSubStringLength(0, txt.length);
		// check if only whitespace or if we can fit the entire string into width w
		if (/^ *$/.test(txt) || sl < w)
			return;

		// this isn't perfect, but gives a good starting point
		// and avoids calling getSubStringLength too often
		var start = Math.floor((w/sl) * txt.length);
		for (var x = start; x > 0; x = x-2) {
			if (t.getSubStringLength(0, x + 2) <= w) {
				t.textContent = txt.substring(0, x) + "..";
				return;
			}
		}
		t.textContent = "";
	}

	// zoom
	function zoom_reset(e) {
		if (e.attributes != undefined) {
			orig_load(e, "x");
			orig_load(e, "width");
		}
		if (e.childNodes == undefined) return;
		for (var i = 0, c = e.childNodes; i < c.length; i++) {
			zoom_reset(c[i]);
		}
	}
	function zoom_child(e, x, ratio) {
		if (e.attributes != undefined) {
			if (e.attributes.x != undefined) {
				orig_save(e, "x");
				e.attributes.x.value = (parseFloat(e.attributes.x.value) - x - 10) * ratio + 10;
				if (e.tagName == "text")
					e.attributes.x.value = find_child(e.parentNode, "rect[x]").attributes.x.value + 3;
			}
			if (e.attributes.width != undefined) {
				orig_save(e, "width");
				e.attributes.width.value = parseFloat(e.attributes.width.value) * ratio;
			}
		}

		if (e.childNodes == undefined) return;
		for (var i = 0, c = e.childNodes; i < c.length; i++) {
			zoom_child(c[i], x - 10, ratio);
		}
	}
	function zoom_parent(e) {
		if (e.attributes) {
			if (e.attributes.x != undefined) {
				orig_save(e, "x");
				e.attributes.x.value = 10;
			}
			if (e.attributes.width != undefined) {
				orig_save(e, "width");
				e.attributes.width.value = parseInt(svg.width.baseVal.value) - (10 * 2);
			}
		}
		if (e.childNodes == undefined) return;
		for (var i = 0, c = e.childNodes; i < c.length; i++) {
			zoom_parent(c[i]);
		}
	}
	function zoom(node) {
		var attr = find_child(node, "rect").attributes;
		var width = parseFloat(attr.width.value);
		var xmin = parseFloat(attr.x.value);
		var xmax = parseFloat(xmin + width);
		var ymin = parseFloat(attr.y.value);
		var ratio = (svg.width.baseVal.value - 2 * 10) / width;

		// XXX: Workaround for JavaScript float issues (fix me)
		var fudge = 0.0001;

		unzoombtn.classList.remove("hide");

		var el = document.getElementById("frames").children;
		for (var i = 0; i < el.length; i++) {
			var e = el[i];
			var a = find_child(e, "rect").attributes;
			var ex = parseFloat(a.x.value);
			var ew = parseFloat(a.width.value);
			var upstack;
			// Is it an ancestor
			if (0 == 0) {
				upstack = parseFloat(a.y.value) > ymin;
			} else {
				upstack = parseFloat(a.y.value) < ymin;
			}
			if (upstack) {
				// Direct ancestor
				if (ex <= xmin && (ex+ew+fudge) >= xmax) {
					e.classList.add("parent");
					zoom_parent(e);
					update_text(e);
				}
				// not in current path
				else
					e.classList.add("hide");
			}
			// Children maybe
			else {
				// no common path
				if (ex < xmin || ex + fudge >= xmax) {
					e.classList.add("hide");
				}
				else {
					zoom_child(e, xmin, ratio);
					update_text(e);
				}
			}
		}
		search();
	}
	function unzoom(dont_update_text) {
		unzoombtn.classList.add("hide");
		var el = document.getElementById("frames").children;
		for(var i = 0; i < el.length; i++) {
			el[i].classList.remove("parent");
			el[i].classList.remove("hide");
			zoom_reset(el[i]);
			if(!dont_update_text) update_text(el[i]);
		}
		search();
	}
	function clearzoom() {
		unzoom();

		// remove zoom state
		var params = get_params();
		if (params.x) delete params.x;
		if (params.y) delete params.y;
		history.replaceState(null, null, parse_params(params));
	}

	// search
	function toggle_ignorecase() {
		ignorecase = !ignorecase;
		if (ignorecase) {
			ignorecaseBtn.classList.add("show");
		} else {
			ignorecaseBtn.classList.remove("show");
		}
		reset_search();
		search();
	}
	function reset_search() {
		var el = document.querySelectorAll("#frames rect");
		for (var i = 0; i < el.length; i++) {
			orig_load(el[i], "fill")
		}
		var params = get_params();
		delete params.s;
		history.replaceState(null, null, parse_params(params));
	}
	function search_prompt() {
		if (!searching) {
			var term = prompt("Enter a search term (regexp " +
			    "allowed, eg: ^ext4_)"
			    + (ignorecase ? ", ignoring case" : "")
			    + "\nPress Ctrl-i to toggle case sensitivity", "");
			if (term != null) search(term);
		} else {
			reset_search();
			searching = 0;
			currentSearchTerm = null;
			searchbtn.classList.remove("show");
			searchbtn.firstChild.nodeValue = "Search"
			matchedtxt.classList.add("hide");
			matchedtxt.firstChild.nodeValue = ""
		}
	}
	function search(term) {
		if (term) currentSearchTerm = term;

		var re = new RegExp(currentSearchTerm, ignorecase ? 'i' : '');
		var el = document.getElementById("frames").children;
		var matches = new Object();
		var maxwidth = 0;
		for (var i = 0; i < el.length; i++) {
			var e = el[i];
			var func = g_to_func(e);
			var rect = find_child(e, "rect");
			if (func == null || rect == null)
				continue;

			// Save max width. Only works as we have a root frame
			var w = parseFloat(rect.attributes.width.value);
			if (w > maxwidth)
				maxwidth = w;

			if (func.match(re)) {
				// highlight
				var x = parseFloat(rect.attributes.x.value);
				orig_save(rect, "fill");
				rect.attributes.fill.value = "rgb(230,0,230)";

				// remember matches
				if (matches[x] == undefined) {
					matches[x] = w;
				} else {
					if (w > matches[x]) {
						// overwrite with parent
						matches[x] = w;
					}
				}
				searching = 1;
			}
		}
		if (!searching)
			return;
		var params = get_params();
		params.s = currentSearchTerm;
		history.replaceState(null, null, parse_params(params));

		searchbtn.classList.add("show");
		searchbtn.firstChild.nodeValue = "Reset Search";

		// calculate percent matched, excluding vertical overlap
		var count = 0;
		var lastx = -1;
		var lastw = 0;
		var keys = Array();
		for (k in matches) {
			if (matches.hasOwnProperty(k))
				keys.push(k);
		}
		// sort the matched frames by their x location
		// ascending, then width descending
		keys.sort(function(a, b){
			return a - b;
		});
		// Step through frames saving only the biggest bottom-up frames
		// thanks to the sort order. This relies on the tree property
		// where children are always smaller than their parents.
		var fudge = 0.0001;	// JavaScript floating point
		for (var k in keys) {
			var x = parseFloat(keys[k]);
			var w = matches[keys[k]];
			if (x >= lastx + lastw - fudge) {
				count += w;
				lastx = x;
				lastw = w;
			}
		}
		// display matched percent
		matchedtxt.classList.remove("hide");
		var pct = 100 * count / maxwidth;
		if (pct != 100) pct = pct.toFixed(1)
		matchedtxt.firstChild.nodeValue = "Matched: " + pct + "%";
	}
]]>
</script>
<rect x="0.0" y="0" width="1200.0" height="1190.0" fill="url(#background)"  />
<text id="title" x="600.00" y="24" >08B</text>
<text id="details" x="10.00" y="1173" > </text>
<text id="unzoom" x="10.00" y="24" class="hide">Reset Zoom</text>
<text id="search" x="1090.00" y="24" >Search</text>
<text id="ignorecase" x="1174.00" y="24" >ic</text>
<text id="matched" x="1090.00" y="1173" > </text>
<g id="frames">
<g >
<title>evaluator.lua:infer (132 samples, 86.84%)</title><rect x="157.5" y="757" width="1024.7" height="15.0" fill="rgb(250,210,50)" rx="2" ry="2" />
<text  x="160.50" y="767.5" >evaluator.lua:infer</text>
</g>
<g >
<title>evaluator.lua:infer (10 samples, 6.58%)</title><rect x="10.0" y="389" width="77.6" height="15.0" fill="rgb(250,210,50)" rx="2" ry="2" />
<text  x="13.00" y="399.5" >evaluato..</text>
</g>
<g >
<title>evaluator.lua:infer (10 samples, 6.58%)</title><rect x="10.0" y="229" width="77.6" height="15.0" fill="rgb(250,210,50)" rx="2" ry="2" />
<text  x="13.00" y="239.5" >evaluato..</text>
</g>
<g >
<title>evaluator.lua:infer (10 samples, 6.58%)</title><rect x="10.0" y="1045" width="77.6" height="15.0" fill="rgb(250,210,50)" rx="2" ry="2" />
<text  x="13.00" y="1055.5" >evaluato..</text>
</g>
<g >
<title>evaluator.lua:infer (136 samples, 89.47%)</title><rect x="126.4" y="821" width="1055.8" height="15.0" fill="rgb(250,210,50)" rx="2" ry="2" />
<text  x="129.45" y="831.5" >evaluator.lua:infer</text>
</g>
<g >
<title>evaluator.lua:check (10 samples, 6.58%)</title><rect x="10.0" y="133" width="77.6" height="15.0" fill="rgb(242,174,41)" rx="2" ry="2" />
<text  x="13.00" y="143.5" >evaluato..</text>
</g>
<g >
<title>[string]:__eq (10 samples, 6.58%)</title><rect x="10.0" y="69" width="77.6" height="15.0" fill="rgb(207,11,2)" rx="2" ry="2" />
<text  x="13.00" y="79.5" >[string]..</text>
</g>
<g >
<title>evaluator.lua:infer (63 samples, 41.45%)</title><rect x="693.2" y="453" width="489.0" height="15.0" fill="rgb(250,210,50)" rx="2" ry="2" />
<text  x="696.16" y="463.5" >evaluator.lua:infer</text>
</g>
<g >
<title>evaluator.lua:infer (10 samples, 6.58%)</title><rect x="10.0" y="821" width="77.6" height="15.0" fill="rgb(250,210,50)" rx="2" ry="2" />
<text  x="13.00" y="831.5" >evaluato..</text>
</g>
<g >
<title>evaluator.lua:infer (139 samples, 91.45%)</title><rect x="103.2" y="1029" width="1079.0" height="15.0" fill="rgb(250,210,50)" rx="2" ry="2" />
<text  x="106.16" y="1039.5" >evaluator.lua:infer</text>
</g>
<g >
<title>evaluator.lua:infer (10 samples, 6.58%)</title><rect x="10.0" y="325" width="77.6" height="15.0" fill="rgb(250,210,50)" rx="2" ry="2" />
<text  x="13.00" y="335.5" >evaluato..</text>
</g>
<g >
<title>evaluator.lua:infer (10 samples, 6.58%)</title><rect x="10.0" y="453" width="77.6" height="15.0" fill="rgb(250,210,50)" rx="2" ry="2" />
<text  x="13.00" y="463.5" >evaluato..</text>
</g>
<g >
<title>evaluator.lua:infer (103 samples, 67.76%)</title><rect x="382.6" y="581" width="799.6" height="15.0" fill="rgb(250,210,50)" rx="2" ry="2" />
<text  x="385.63" y="591.5" >evaluator.lua:infer</text>
</g>
<g >
<title>evaluator.lua:infer (10 samples, 6.58%)</title><rect x="10.0" y="357" width="77.6" height="15.0" fill="rgb(250,210,50)" rx="2" ry="2" />
<text  x="13.00" y="367.5" >evaluato..</text>
</g>
<g >
<title>[string]:20 (10 samples, 6.58%)</title><rect x="10.0" y="1125" width="77.6" height="15.0" fill="rgb(234,134,32)" rx="2" ry="2" />
<text  x="13.00" y="1135.5" >[string]..</text>
</g>
<g >
<title>evaluator.lua:infer (10 samples, 6.58%)</title><rect x="10.0" y="533" width="77.6" height="15.0" fill="rgb(250,210,50)" rx="2" ry="2" />
<text  x="13.00" y="543.5" >evaluato..</text>
</g>
<g >
<title>evaluator.lua:infer (10 samples, 6.58%)</title><rect x="10.0" y="597" width="77.6" height="15.0" fill="rgb(250,210,50)" rx="2" ry="2" />
<text  x="13.00" y="607.5" >evaluato..</text>
</g>
<g >
<title>evaluator.lua:infer (10 samples, 6.58%)</title><rect x="10.0" y="437" width="77.6" height="15.0" fill="rgb(250,210,50)" rx="2" ry="2" />
<text  x="13.00" y="447.5" >evaluato..</text>
</g>
<g >
<title>evaluator.lua:infer (29 samples, 19.08%)</title><rect x="957.1" y="357" width="225.1" height="15.0" fill="rgb(250,210,50)" rx="2" ry="2" />
<text  x="960.11" y="367.5" >evaluator.lua:infer</text>
</g>
<g >
<title>evaluator.lua:infer (10 samples, 6.58%)</title><rect x="10.0" y="805" width="77.6" height="15.0" fill="rgb(250,210,50)" rx="2" ry="2" />
<text  x="13.00" y="815.5" >evaluato..</text>
</g>
<g >
<title>evaluator.lua:infer (22 samples, 14.47%)</title><rect x="1011.4" y="309" width="170.8" height="15.0" fill="rgb(250,210,50)" rx="2" ry="2" />
<text  x="1014.45" y="319.5" >evaluator.lua:infer</text>
</g>
<g >
<title>evaluator.lua:infer (10 samples, 6.58%)</title><rect x="10.0" y="293" width="77.6" height="15.0" fill="rgb(250,210,50)" rx="2" ry="2" />
<text  x="13.00" y="303.5" >evaluato..</text>
</g>
<g >
<title>evaluator.lua:infer (89 samples, 58.55%)</title><rect x="491.3" y="533" width="690.9" height="15.0" fill="rgb(250,210,50)" rx="2" ry="2" />
<text  x="494.32" y="543.5" >evaluator.lua:infer</text>
</g>
<g >
<title>[string]:__eq (10 samples, 6.58%)</title><rect x="848.4" y="341" width="77.7" height="15.0" fill="rgb(207,11,2)" rx="2" ry="2" />
<text  x="851.42" y="351.5" >[string]..</text>
</g>
<g >
<title>[string]:39 (10 samples, 6.58%)</title><rect x="848.4" y="325" width="77.7" height="15.0" fill="rgb(219,67,16)" rx="2" ry="2" />
<text  x="851.42" y="335.5" >[string]..</text>
</g>
<g >
<title>evaluator.lua:infer (10 samples, 6.58%)</title><rect x="10.0" y="501" width="77.6" height="15.0" fill="rgb(250,210,50)" rx="2" ry="2" />
<text  x="13.00" y="511.5" >evaluato..</text>
</g>
<g >
<title>evaluator.lua:infer (13 samples, 8.55%)</title><rect x="1081.3" y="277" width="100.9" height="15.0" fill="rgb(250,210,50)" rx="2" ry="2" />
<text  x="1084.32" y="287.5" >evaluator.lu..</text>
</g>
<g >
<title>evaluator.lua:infer (43 samples, 28.29%)</title><rect x="848.4" y="389" width="333.8" height="15.0" fill="rgb(250,210,50)" rx="2" ry="2" />
<text  x="851.42" y="399.5" >evaluator.lua:infer</text>
</g>
<g >
<title>evaluator.lua:infer (10 samples, 6.58%)</title><rect x="10.0" y="933" width="77.6" height="15.0" fill="rgb(250,210,50)" rx="2" ry="2" />
<text  x="13.00" y="943.5" >evaluato..</text>
</g>
<g >
<title>evaluator.lua:infer (10 samples, 6.58%)</title><rect x="10.0" y="261" width="77.6" height="15.0" fill="rgb(250,210,50)" rx="2" ry="2" />
<text  x="13.00" y="271.5" >evaluato..</text>
</g>
<g >
<title>evaluator.lua:infer (10 samples, 6.58%)</title><rect x="10.0" y="709" width="77.6" height="15.0" fill="rgb(250,210,50)" rx="2" ry="2" />
<text  x="13.00" y="719.5" >evaluato..</text>
</g>
<g >
<title>evaluator.lua:infer (81 samples, 53.29%)</title><rect x="553.4" y="517" width="628.8" height="15.0" fill="rgb(250,210,50)" rx="2" ry="2" />
<text  x="556.42" y="527.5" >evaluator.lua:infer</text>
</g>
<g >
<title>evaluator.lua:infer (139 samples, 91.45%)</title><rect x="103.2" y="981" width="1079.0" height="15.0" fill="rgb(250,210,50)" rx="2" ry="2" />
<text  x="106.16" y="991.5" >evaluator.lua:infer</text>
</g>
<g >
<title>evaluator.lua:infer (10 samples, 6.58%)</title><rect x="10.0" y="277" width="77.6" height="15.0" fill="rgb(250,210,50)" rx="2" ry="2" />
<text  x="13.00" y="287.5" >evaluato..</text>
</g>
<g >
<title>evaluator.lua:infer (10 samples, 6.58%)</title><rect x="10.0" y="981" width="77.6" height="15.0" fill="rgb(250,210,50)" rx="2" ry="2" />
<text  x="13.00" y="991.5" >evaluato..</text>
</g>
<g >
<title>evaluator.lua:infer (131 samples, 86.18%)</title><rect x="165.3" y="741" width="1016.9" height="15.0" fill="rgb(250,210,50)" rx="2" ry="2" />
<text  x="168.26" y="751.5" >evaluator.lua:infer</text>
</g>
<g >
<title>evaluator.lua:check (10 samples, 6.58%)</title><rect x="848.4" y="357" width="77.7" height="15.0" fill="rgb(242,174,41)" rx="2" ry="2" />
<text  x="851.42" y="367.5" >evaluato..</text>
</g>
<g >
<title>evaluator.lua:infer (118 samples, 77.63%)</title><rect x="266.2" y="661" width="916.0" height="15.0" fill="rgb(250,210,50)" rx="2" ry="2" />
<text  x="269.18" y="671.5" >evaluator.lua:infer</text>
</g>
<g >
<title>evaluator.lua:infer (10 samples, 6.58%)</title><rect x="10.0" y="885" width="77.6" height="15.0" fill="rgb(250,210,50)" rx="2" ry="2" />
<text  x="13.00" y="895.5" >evaluato..</text>
</g>
<g >
<title>[string]:8 (10 samples, 6.58%)</title><rect x="848.4" y="293" width="77.7" height="15.0" fill="rgb(205,2,0)" rx="2" ry="2" />
<text  x="851.42" y="303.5" >[string]:8</text>
</g>
<g >
<title>evaluator.lua:infer (10 samples, 6.58%)</title><rect x="10.0" y="309" width="77.6" height="15.0" fill="rgb(250,210,50)" rx="2" ry="2" />
<text  x="13.00" y="319.5" >evaluato..</text>
</g>
<g >
<title>all (152 samples, 100%)</title><rect x="10.0" y="1141" width="1180.0" height="15.0" fill="rgb(213,39,9)" rx="2" ry="2" />
<text  x="13.00" y="1151.5" ></text>
</g>
<g >
<title>evaluator.lua:infer (10 samples, 6.58%)</title><rect x="10.0" y="789" width="77.6" height="15.0" fill="rgb(250,210,50)" rx="2" ry="2" />
<text  x="13.00" y="799.5" >evaluato..</text>
</g>
<g >
<title>evaluator.lua:check (10 samples, 6.58%)</title><rect x="10.0" y="117" width="77.6" height="15.0" fill="rgb(242,174,41)" rx="2" ry="2" />
<text  x="13.00" y="127.5" >evaluato..</text>
</g>
<g >
<title>evaluator.lua:infer (113 samples, 74.34%)</title><rect x="305.0" y="629" width="877.2" height="15.0" fill="rgb(250,210,50)" rx="2" ry="2" />
<text  x="308.00" y="639.5" >evaluator.lua:infer</text>
</g>
<g >
<title>evaluator.lua:infer (50 samples, 32.89%)</title><rect x="794.1" y="421" width="388.1" height="15.0" fill="rgb(250,210,50)" rx="2" ry="2" />
<text  x="797.08" y="431.5" >evaluator.lua:infer</text>
</g>
<g >
<title>runtest.lua:fn (10 samples, 6.58%)</title><rect x="10.0" y="1093" width="77.6" height="15.0" fill="rgb(245,185,44)" rx="2" ry="2" />
<text  x="13.00" y="1103.5" >runtest...</text>
</g>
<g >
<title>evaluator.lua:infer (124 samples, 81.58%)</title><rect x="219.6" y="693" width="962.6" height="15.0" fill="rgb(250,210,50)" rx="2" ry="2" />
<text  x="222.61" y="703.5" >evaluator.lua:infer</text>
</g>
<g >
<title>evaluator.lua:infer (139 samples, 91.45%)</title><rect x="103.2" y="1045" width="1079.0" height="15.0" fill="rgb(250,210,50)" rx="2" ry="2" />
<text  x="106.16" y="1055.5" >evaluator.lua:infer</text>
</g>
<g >
<title>evaluator.lua:infer (138 samples, 90.79%)</title><rect x="110.9" y="965" width="1071.3" height="15.0" fill="rgb(250,210,50)" rx="2" ry="2" />
<text  x="113.92" y="975.5" >evaluator.lua:infer</text>
</g>
<g >
<title>evaluator.lua:infer (10 samples, 6.58%)</title><rect x="10.0" y="565" width="77.6" height="15.0" fill="rgb(250,210,50)" rx="2" ry="2" />
<text  x="13.00" y="575.5" >evaluato..</text>
</g>
<g >
<title>evaluator.lua:infer (10 samples, 6.58%)</title><rect x="10.0" y="693" width="77.6" height="15.0" fill="rgb(250,210,50)" rx="2" ry="2" />
<text  x="13.00" y="703.5" >evaluato..</text>
</g>
<g >
<title>evaluator.lua:infer (137 samples, 90.13%)</title><rect x="118.7" y="853" width="1063.5" height="15.0" fill="rgb(250,210,50)" rx="2" ry="2" />
<text  x="121.68" y="863.5" >evaluator.lua:infer</text>
</g>
<g >
<title>evaluator.lua:infer (10 samples, 6.58%)</title><rect x="10.0" y="901" width="77.6" height="15.0" fill="rgb(250,210,50)" rx="2" ry="2" />
<text  x="13.00" y="911.5" >evaluato..</text>
</g>
<g >
<title>evaluator.lua:infer (10 samples, 6.58%)</title><rect x="10.0" y="997" width="77.6" height="15.0" fill="rgb(250,210,50)" rx="2" ry="2" />
<text  x="13.00" y="1007.5" >evaluato..</text>
</g>
<g >
<title>evaluator.lua:infer (14 samples, 9.21%)</title><rect x="1073.6" y="293" width="108.6" height="15.0" fill="rgb(250,210,50)" rx="2" ry="2" />
<text  x="1076.55" y="303.5" >evaluator.lua..</text>
</g>
<g >
<title>evaluator.lua:infer (135 samples, 88.82%)</title><rect x="134.2" y="805" width="1048.0" height="15.0" fill="rgb(250,210,50)" rx="2" ry="2" />
<text  x="137.21" y="815.5" >evaluator.lua:infer</text>
</g>
<g >
<title>evaluator.lua:infer (137 samples, 90.13%)</title><rect x="118.7" y="869" width="1063.5" height="15.0" fill="rgb(250,210,50)" rx="2" ry="2" />
<text  x="121.68" y="879.5" >evaluator.lua:infer</text>
</g>
<g >
<title>evaluator.lua:infer (57 samples, 37.50%)</title><rect x="739.7" y="437" width="442.5" height="15.0" fill="rgb(250,210,50)" rx="2" ry="2" />
<text  x="742.74" y="447.5" >evaluator.lua:infer</text>
</g>
<g >
<title>[string]:__eq (10 samples, 6.58%)</title><rect x="10.0" y="101" width="77.6" height="15.0" fill="rgb(207,11,2)" rx="2" ry="2" />
<text  x="13.00" y="111.5" >[string]..</text>
</g>
<g >
<title>[string]:require (10 samples, 6.58%)</title><rect x="10.0" y="1109" width="77.6" height="15.0" fill="rgb(225,94,22)" rx="2" ry="2" />
<text  x="13.00" y="1119.5" >[string]..</text>
</g>
<g >
<title>evaluator.lua:infer (138 samples, 90.79%)</title><rect x="110.9" y="949" width="1071.3" height="15.0" fill="rgb(250,210,50)" rx="2" ry="2" />
<text  x="113.92" y="959.5" >evaluator.lua:infer</text>
</g>
<g >
<title>evaluator.lua:infer (26 samples, 17.11%)</title><rect x="980.4" y="325" width="201.8" height="15.0" fill="rgb(250,210,50)" rx="2" ry="2" />
<text  x="983.39" y="335.5" >evaluator.lua:infer</text>
</g>
<g >
<title>evaluator.lua:infer (10 samples, 6.58%)</title><rect x="10.0" y="677" width="77.6" height="15.0" fill="rgb(250,210,50)" rx="2" ry="2" />
<text  x="13.00" y="687.5" >evaluato..</text>
</g>
<g >
<title>evaluator.lua:infer (48 samples, 31.58%)</title><rect x="809.6" y="405" width="372.6" height="15.0" fill="rgb(250,210,50)" rx="2" ry="2" />
<text  x="812.61" y="415.5" >evaluator.lua:infer</text>
</g>
<g >
<title>evaluator.lua:infer (10 samples, 6.58%)</title><rect x="10.0" y="837" width="77.6" height="15.0" fill="rgb(250,210,50)" rx="2" ry="2" />
<text  x="13.00" y="847.5" >evaluato..</text>
</g>
<g >
<title>evaluator.lua:infer (10 samples, 6.58%)</title><rect x="10.0" y="1013" width="77.6" height="15.0" fill="rgb(250,210,50)" rx="2" ry="2" />
<text  x="13.00" y="1023.5" >evaluato..</text>
</g>
<g >
<title>evaluator.lua:infer (10 samples, 6.58%)</title><rect x="10.0" y="181" width="77.6" height="15.0" fill="rgb(250,210,50)" rx="2" ry="2" />
<text  x="13.00" y="191.5" >evaluato..</text>
</g>
<g >
<title>evaluator.lua:infer (10 samples, 6.58%)</title><rect x="10.0" y="965" width="77.6" height="15.0" fill="rgb(250,210,50)" rx="2" ry="2" />
<text  x="13.00" y="975.5" >evaluato..</text>
</g>
<g >
<title>evaluator.lua:infer (10 samples, 6.58%)</title><rect x="10.0" y="149" width="77.6" height="15.0" fill="rgb(250,210,50)" rx="2" ry="2" />
<text  x="13.00" y="159.5" >evaluato..</text>
</g>
<g >
<title>evaluator.lua:infer (139 samples, 91.45%)</title><rect x="103.2" y="1061" width="1079.0" height="15.0" fill="rgb(250,210,50)" rx="2" ry="2" />
<text  x="106.16" y="1071.5" >evaluator.lua:infer</text>
</g>
<g >
<title>evaluator.lua:infer (10 samples, 6.58%)</title><rect x="10.0" y="1029" width="77.6" height="15.0" fill="rgb(250,210,50)" rx="2" ry="2" />
<text  x="13.00" y="1039.5" >evaluato..</text>
</g>
<g >
<title>evaluator.lua:infer (136 samples, 89.47%)</title><rect x="126.4" y="837" width="1055.8" height="15.0" fill="rgb(250,210,50)" rx="2" ry="2" />
<text  x="129.45" y="847.5" >evaluator.lua:infer</text>
</g>
<g >
<title>evaluator.lua:infer (131 samples, 86.18%)</title><rect x="165.3" y="725" width="1016.9" height="15.0" fill="rgb(250,210,50)" rx="2" ry="2" />
<text  x="168.26" y="735.5" >evaluator.lua:infer</text>
</g>
<g >
<title>evaluator.lua:infer (10 samples, 6.58%)</title><rect x="10.0" y="869" width="77.6" height="15.0" fill="rgb(250,210,50)" rx="2" ry="2" />
<text  x="13.00" y="879.5" >evaluato..</text>
</g>
<g >
<title>evaluator.lua:infer (10 samples, 6.58%)</title><rect x="10.0" y="773" width="77.6" height="15.0" fill="rgb(250,210,50)" rx="2" ry="2" />
<text  x="13.00" y="783.5" >evaluato..</text>
</g>
<g >
<title>evaluator.lua:infer (139 samples, 91.45%)</title><rect x="103.2" y="1013" width="1079.0" height="15.0" fill="rgb(250,210,50)" rx="2" ry="2" />
<text  x="106.16" y="1023.5" >evaluator.lua:infer</text>
</g>
<g >
<title>evaluator.lua:infer (10 samples, 6.58%)</title><rect x="10.0" y="725" width="77.6" height="15.0" fill="rgb(250,210,50)" rx="2" ry="2" />
<text  x="13.00" y="735.5" >evaluato..</text>
</g>
<g >
<title>evaluator.lua:infer (10 samples, 6.58%)</title><rect x="10.0" y="613" width="77.6" height="15.0" fill="rgb(250,210,50)" rx="2" ry="2" />
<text  x="13.00" y="623.5" >evaluato..</text>
</g>
<g >
<title>evaluator.lua:infer (129 samples, 84.87%)</title><rect x="180.8" y="709" width="1001.4" height="15.0" fill="rgb(250,210,50)" rx="2" ry="2" />
<text  x="183.79" y="719.5" >evaluator.lua:infer</text>
</g>
<g >
<title>evaluator.lua:infer (28 samples, 18.42%)</title><rect x="964.9" y="341" width="217.3" height="15.0" fill="rgb(250,210,50)" rx="2" ry="2" />
<text  x="967.87" y="351.5" >evaluator.lua:infer</text>
</g>
<g >
<title>evaluator.lua:infer (109 samples, 71.71%)</title><rect x="336.1" y="613" width="846.1" height="15.0" fill="rgb(250,210,50)" rx="2" ry="2" />
<text  x="339.05" y="623.5" >evaluator.lua:infer</text>
</g>
<g >
<title>evaluator.lua:infer (139 samples, 91.45%)</title><rect x="103.2" y="1109" width="1079.0" height="15.0" fill="rgb(250,210,50)" rx="2" ry="2" />
<text  x="106.16" y="1119.5" >evaluator.lua:infer</text>
</g>
<g >
<title>evaluator.lua:infer (10 samples, 6.58%)</title><rect x="10.0" y="245" width="77.6" height="15.0" fill="rgb(250,210,50)" rx="2" ry="2" />
<text  x="13.00" y="255.5" >evaluato..</text>
</g>
<g >
<title>evaluator.lua:infer (10 samples, 6.58%)</title><rect x="10.0" y="853" width="77.6" height="15.0" fill="rgb(250,210,50)" rx="2" ry="2" />
<text  x="13.00" y="863.5" >evaluato..</text>
</g>
<g >
<title>evaluator.lua:infer (33 samples, 21.71%)</title><rect x="926.1" y="373" width="256.1" height="15.0" fill="rgb(250,210,50)" rx="2" ry="2" />
<text  x="929.05" y="383.5" >evaluator.lua:infer</text>
</g>
<g >
<title>evaluator.lua:infer (95 samples, 62.50%)</title><rect x="444.7" y="549" width="737.5" height="15.0" fill="rgb(250,210,50)" rx="2" ry="2" />
<text  x="447.74" y="559.5" >evaluator.lua:infer</text>
</g>
<g >
<title>evaluator.lua:infer (137 samples, 90.13%)</title><rect x="118.7" y="885" width="1063.5" height="15.0" fill="rgb(250,210,50)" rx="2" ry="2" />
<text  x="121.68" y="895.5" >evaluator.lua:infer</text>
</g>
<g >
<title>evaluator.lua:infer (10 samples, 6.58%)</title><rect x="10.0" y="949" width="77.6" height="15.0" fill="rgb(250,210,50)" rx="2" ry="2" />
<text  x="13.00" y="959.5" >evaluato..</text>
</g>
<g >
<title>evaluator.lua:infer (10 samples, 6.58%)</title><rect x="10.0" y="517" width="77.6" height="15.0" fill="rgb(250,210,50)" rx="2" ry="2" />
<text  x="13.00" y="527.5" >evaluato..</text>
</g>
<g >
<title>evaluator.lua:infer (10 samples, 6.58%)</title><rect x="10.0" y="341" width="77.6" height="15.0" fill="rgb(250,210,50)" rx="2" ry="2" />
<text  x="13.00" y="351.5" >evaluato..</text>
</g>
<g >
<title>evaluator.lua:infer (10 samples, 6.58%)</title><rect x="10.0" y="917" width="77.6" height="15.0" fill="rgb(250,210,50)" rx="2" ry="2" />
<text  x="13.00" y="927.5" >evaluato..</text>
</g>
<g >
<title>evaluator.lua:infer (10 samples, 6.58%)</title><rect x="10.0" y="661" width="77.6" height="15.0" fill="rgb(250,210,50)" rx="2" ry="2" />
<text  x="13.00" y="671.5" >evaluato..</text>
</g>
<g >
<title>evaluator.lua:infer (139 samples, 91.45%)</title><rect x="103.2" y="997" width="1079.0" height="15.0" fill="rgb(250,210,50)" rx="2" ry="2" />
<text  x="106.16" y="1007.5" >evaluator.lua:infer</text>
</g>
<g >
<title>evaluator.lua:infer (10 samples, 6.58%)</title><rect x="10.0" y="469" width="77.6" height="15.0" fill="rgb(250,210,50)" rx="2" ry="2" />
<text  x="13.00" y="479.5" >evaluato..</text>
</g>
<g >
<title>evaluator.lua:infer (97 samples, 63.82%)</title><rect x="429.2" y="565" width="753.0" height="15.0" fill="rgb(250,210,50)" rx="2" ry="2" />
<text  x="432.21" y="575.5" >evaluator.lua:infer</text>
</g>
<g >
<title>evaluator.lua:infer (10 samples, 6.58%)</title><rect x="10.0" y="581" width="77.6" height="15.0" fill="rgb(250,210,50)" rx="2" ry="2" />
<text  x="13.00" y="591.5" >evaluato..</text>
</g>
<g >
<title>evaluator.lua:infer (10 samples, 6.58%)</title><rect x="10.0" y="165" width="77.6" height="15.0" fill="rgb(250,210,50)" rx="2" ry="2" />
<text  x="13.00" y="175.5" >evaluato..</text>
</g>
<g >
<title>evaluator.lua:infer (10 samples, 6.58%)</title><rect x="10.0" y="1077" width="77.6" height="15.0" fill="rgb(250,210,50)" rx="2" ry="2" />
<text  x="13.00" y="1087.5" >evaluato..</text>
</g>
<g >
<title>evaluator.lua:infer (10 samples, 6.58%)</title><rect x="1104.6" y="261" width="77.6" height="15.0" fill="rgb(250,210,50)" rx="2" ry="2" />
<text  x="1107.61" y="271.5" >evaluato..</text>
</g>
<g >
<title>evaluator.lua:infer (107 samples, 70.39%)</title><rect x="351.6" y="597" width="830.6" height="15.0" fill="rgb(250,210,50)" rx="2" ry="2" />
<text  x="354.58" y="607.5" >evaluator.lua:infer</text>
</g>
<g >
<title>evaluator.lua:infer (73 samples, 48.03%)</title><rect x="615.5" y="485" width="566.7" height="15.0" fill="rgb(250,210,50)" rx="2" ry="2" />
<text  x="618.53" y="495.5" >evaluator.lua:infer</text>
</g>
<g >
<title>evaluator.lua:check (10 samples, 6.58%)</title><rect x="848.4" y="373" width="77.7" height="15.0" fill="rgb(242,174,41)" rx="2" ry="2" />
<text  x="851.42" y="383.5" >evaluato..</text>
</g>
<g >
<title>evaluator.lua:infer (67 samples, 44.08%)</title><rect x="662.1" y="469" width="520.1" height="15.0" fill="rgb(250,210,50)" rx="2" ry="2" />
<text  x="665.11" y="479.5" >evaluator.lua:infer</text>
</g>
<g >
<title>evaluator.lua:infer (139 samples, 91.45%)</title><rect x="103.2" y="1077" width="1079.0" height="15.0" fill="rgb(250,210,50)" rx="2" ry="2" />
<text  x="106.16" y="1087.5" >evaluator.lua:infer</text>
</g>
<g >
<title>evaluator.lua:infer (10 samples, 6.58%)</title><rect x="10.0" y="629" width="77.6" height="15.0" fill="rgb(250,210,50)" rx="2" ry="2" />
<text  x="13.00" y="639.5" >evaluato..</text>
</g>
<g >
<title>evaluator.lua:infer (117 samples, 76.97%)</title><rect x="273.9" y="645" width="908.3" height="15.0" fill="rgb(250,210,50)" rx="2" ry="2" />
<text  x="276.95" y="655.5" >evaluator.lua:infer</text>
</g>
<g >
<title>[string]:8 (10 samples, 6.58%)</title><rect x="10.0" y="53" width="77.6" height="15.0" fill="rgb(205,2,0)" rx="2" ry="2" />
<text  x="13.00" y="63.5" >[string]:8</text>
</g>
<g >
<title>evaluator.lua:infer (133 samples, 87.50%)</title><rect x="149.7" y="789" width="1032.5" height="15.0" fill="rgb(250,210,50)" rx="2" ry="2" />
<text  x="152.74" y="799.5" >evaluator.lua:infer</text>
</g>
<g >
<title>[string]:39 (10 samples, 6.58%)</title><rect x="10.0" y="85" width="77.6" height="15.0" fill="rgb(219,67,16)" rx="2" ry="2" />
<text  x="13.00" y="95.5" >[string]..</text>
</g>
<g >
<title>evaluator.lua:infer (10 samples, 6.58%)</title><rect x="10.0" y="645" width="77.6" height="15.0" fill="rgb(250,210,50)" rx="2" ry="2" />
<text  x="13.00" y="655.5" >evaluato..</text>
</g>
<g >
<title>evaluator.lua:infer (78 samples, 51.32%)</title><rect x="576.7" y="501" width="605.5" height="15.0" fill="rgb(250,210,50)" rx="2" ry="2" />
<text  x="579.71" y="511.5" >evaluator.lua:infer</text>
</g>
<g >
<title>evaluator.lua:infer (133 samples, 87.50%)</title><rect x="149.7" y="773" width="1032.5" height="15.0" fill="rgb(250,210,50)" rx="2" ry="2" />
<text  x="152.74" y="783.5" >evaluator.lua:infer</text>
</g>
<g >
<title>evaluator.lua:infer (10 samples, 6.58%)</title><rect x="10.0" y="405" width="77.6" height="15.0" fill="rgb(250,210,50)" rx="2" ry="2" />
<text  x="13.00" y="415.5" >evaluato..</text>
</g>
<g >
<title>evaluator.lua:infer (10 samples, 6.58%)</title><rect x="10.0" y="549" width="77.6" height="15.0" fill="rgb(250,210,50)" rx="2" ry="2" />
<text  x="13.00" y="559.5" >evaluato..</text>
</g>
<g >
<title>evaluator.lua:infer (138 samples, 90.79%)</title><rect x="110.9" y="933" width="1071.3" height="15.0" fill="rgb(250,210,50)" rx="2" ry="2" />
<text  x="113.92" y="943.5" >evaluator.lua:infer</text>
</g>
<g >
<title>evaluator.lua:infer (139 samples, 91.45%)</title><rect x="103.2" y="1093" width="1079.0" height="15.0" fill="rgb(250,210,50)" rx="2" ry="2" />
<text  x="106.16" y="1103.5" >evaluator.lua:infer</text>
</g>
<g >
<title>evaluator.lua:infer (139 samples, 91.45%)</title><rect x="103.2" y="1125" width="1079.0" height="15.0" fill="rgb(250,210,50)" rx="2" ry="2" />
<text  x="106.16" y="1135.5" >evaluator.lua:infer</text>
</g>
<g >
<title>evaluator.lua:infer (138 samples, 90.79%)</title><rect x="110.9" y="901" width="1071.3" height="15.0" fill="rgb(250,210,50)" rx="2" ry="2" />
<text  x="113.92" y="911.5" >evaluator.lua:infer</text>
</g>
<g >
<title>evaluator.lua:infer (10 samples, 6.58%)</title><rect x="10.0" y="757" width="77.6" height="15.0" fill="rgb(250,210,50)" rx="2" ry="2" />
<text  x="13.00" y="767.5" >evaluato..</text>
</g>
<g >
<title>[string]:__eq (10 samples, 6.58%)</title><rect x="848.4" y="277" width="77.7" height="15.0" fill="rgb(207,11,2)" rx="2" ry="2" />
<text  x="851.42" y="287.5" >[string]..</text>
</g>
<g >
<title>evaluator.lua:infer (123 samples, 80.92%)</title><rect x="227.4" y="677" width="954.8" height="15.0" fill="rgb(250,210,50)" rx="2" ry="2" />
<text  x="230.37" y="687.5" >evaluator.lua:infer</text>
</g>
<g >
<title>evaluator.lua:infer (138 samples, 90.79%)</title><rect x="110.9" y="917" width="1071.3" height="15.0" fill="rgb(250,210,50)" rx="2" ry="2" />
<text  x="113.92" y="927.5" >evaluator.lua:infer</text>
</g>
<g >
<title>evaluator.lua:infer (10 samples, 6.58%)</title><rect x="10.0" y="421" width="77.6" height="15.0" fill="rgb(250,210,50)" rx="2" ry="2" />
<text  x="13.00" y="431.5" >evaluato..</text>
</g>
<g >
<title>evaluator.lua:infer (10 samples, 6.58%)</title><rect x="10.0" y="741" width="77.6" height="15.0" fill="rgb(250,210,50)" rx="2" ry="2" />
<text  x="13.00" y="751.5" >evaluato..</text>
</g>
<g >
<title>evaluator.lua:infer (10 samples, 6.58%)</title><rect x="10.0" y="213" width="77.6" height="15.0" fill="rgb(250,210,50)" rx="2" ry="2" />
<text  x="13.00" y="223.5" >evaluato..</text>
</g>
<g >
<title>evaluator.lua:infer (10 samples, 6.58%)</title><rect x="10.0" y="373" width="77.6" height="15.0" fill="rgb(250,210,50)" rx="2" ry="2" />
<text  x="13.00" y="383.5" >evaluato..</text>
</g>
<g >
<title>evaluator.lua:infer (10 samples, 6.58%)</title><rect x="10.0" y="197" width="77.6" height="15.0" fill="rgb(250,210,50)" rx="2" ry="2" />
<text  x="13.00" y="207.5" >evaluato..</text>
</g>
<g >
<title>[string]:__eq (10 samples, 6.58%)</title><rect x="848.4" y="309" width="77.7" height="15.0" fill="rgb(207,11,2)" rx="2" ry="2" />
<text  x="851.42" y="319.5" >[string]..</text>
</g>
<g >
<title>evaluator.lua:infer (10 samples, 6.58%)</title><rect x="10.0" y="485" width="77.6" height="15.0" fill="rgb(250,210,50)" rx="2" ry="2" />
<text  x="13.00" y="495.5" >evaluato..</text>
</g>
<g >
<title>[string]:__eq (10 samples, 6.58%)</title><rect x="10.0" y="37" width="77.6" height="15.0" fill="rgb(207,11,2)" rx="2" ry="2" />
<text  x="13.00" y="47.5" >[string]..</text>
</g>
<g >
<title>evaluator.lua:infer (10 samples, 6.58%)</title><rect x="10.0" y="1061" width="77.6" height="15.0" fill="rgb(250,210,50)" rx="2" ry="2" />
<text  x="13.00" y="1071.5" >evaluato..</text>
</g>
</g>
</svg>
