<?xml version="1.0" standalone="no"?>
<!DOCTYPE svg PUBLIC "-//W3C//DTD SVG 1.1//EN" "http://www.w3.org/Graphics/SVG/1.1/DTD/svg11.dtd">
<svg version="1.1" width="1200" height="1190" onload="init(evt)" viewBox="0 0 1200 1190" xmlns="http://www.w3.org/2000/svg" xmlns:xlink="http://www.w3.org/1999/xlink">
<!-- Flame graph stack visualization. See https://github.com/brendangregg/FlameGraph for latest version, and http://www.brendangregg.com/flamegraphs.html for examples. -->
<!-- NOTES:  -->
<defs>
	<linearGradient id="background" y1="0" y2="1" x1="0" x2="0" >
		<stop stop-color="#eeeeee" offset="5%" />
		<stop stop-color="#eeeeb0" offset="95%" />
	</linearGradient>
</defs>
<style type="text/css">
	text { font-family:Verdana; font-size:12px; fill:rgb(0,0,0); }
	#search, #ignorecase { opacity:0.1; cursor:pointer; }
	#search:hover, #search.show, #ignorecase:hover, #ignorecase.show { opacity:1; }
	#subtitle { text-anchor:middle; font-color:rgb(160,160,160); }
	#title { text-anchor:middle; font-size:17px}
	#unzoom { cursor:pointer; }
	#frames > *:hover { stroke:black; stroke-width:0.5; cursor:pointer; }
	.hide { display:none; }
	.parent { opacity:0.5; }
</style>
<script type="text/ecmascript">
<![CDATA[
	"use strict";
	var details, searchbtn, unzoombtn, matchedtxt, svg, searching, currentSearchTerm, ignorecase, ignorecaseBtn;
	function init(evt) {
		details = document.getElementById("details").firstChild;
		searchbtn = document.getElementById("search");
		ignorecaseBtn = document.getElementById("ignorecase");
		unzoombtn = document.getElementById("unzoom");
		matchedtxt = document.getElementById("matched");
		svg = document.getElementsByTagName("svg")[0];
		searching = 0;
		currentSearchTerm = null;

		// use GET parameters to restore a flamegraphs state.
		var params = get_params();
		if (params.x && params.y)
			zoom(find_group(document.querySelector('[x="' + params.x + '"][y="' + params.y + '"]')));
                if (params.s) search(params.s);
	}

	// event listeners
	window.addEventListener("click", function(e) {
		var target = find_group(e.target);
		if (target) {
			if (target.nodeName == "a") {
				if (e.ctrlKey === false) return;
				e.preventDefault();
			}
			if (target.classList.contains("parent")) unzoom(true);
			zoom(target);
			if (!document.querySelector('.parent')) {
				// we have basically done a clearzoom so clear the url
				var params = get_params();
				if (params.x) delete params.x;
				if (params.y) delete params.y;
				history.replaceState(null, null, parse_params(params));
				unzoombtn.classList.add("hide");
				return;
			}

			// set parameters for zoom state
			var el = target.querySelector("rect");
			if (el && el.attributes && el.attributes.y && el.attributes._orig_x) {
				var params = get_params()
				params.x = el.attributes._orig_x.value;
				params.y = el.attributes.y.value;
				history.replaceState(null, null, parse_params(params));
			}
		}
		else if (e.target.id == "unzoom") clearzoom();
		else if (e.target.id == "search") search_prompt();
		else if (e.target.id == "ignorecase") toggle_ignorecase();
	}, false)

	// mouse-over for info
	// show
	window.addEventListener("mouseover", function(e) {
		var target = find_group(e.target);
		if (target) details.nodeValue = "Function: " + g_to_text(target);
	}, false)

	// clear
	window.addEventListener("mouseout", function(e) {
		var target = find_group(e.target);
		if (target) details.nodeValue = ' ';
	}, false)

	// ctrl-F for search
	// ctrl-I to toggle case-sensitive search
	window.addEventListener("keydown",function (e) {
		if (e.keyCode === 114 || (e.ctrlKey && e.keyCode === 70)) {
			e.preventDefault();
			search_prompt();
		}
		else if (e.ctrlKey && e.keyCode === 73) {
			e.preventDefault();
			toggle_ignorecase();
		}
	}, false)

	// functions
	function get_params() {
		var params = {};
		var paramsarr = window.location.search.substr(1).split('&');
		for (var i = 0; i < paramsarr.length; ++i) {
			var tmp = paramsarr[i].split("=");
			if (!tmp[0] || !tmp[1]) continue;
			params[tmp[0]]  = decodeURIComponent(tmp[1]);
		}
		return params;
	}
	function parse_params(params) {
		var uri = "?";
		for (var key in params) {
			uri += key + '=' + encodeURIComponent(params[key]) + '&';
		}
		if (uri.slice(-1) == "&")
			uri = uri.substring(0, uri.length - 1);
		if (uri == '?')
			uri = window.location.href.split('?')[0];
		return uri;
	}
	function find_child(node, selector) {
		var children = node.querySelectorAll(selector);
		if (children.length) return children[0];
	}
	function find_group(node) {
		var parent = node.parentElement;
		if (!parent) return;
		if (parent.id == "frames") return node;
		return find_group(parent);
	}
	function orig_save(e, attr, val) {
		if (e.attributes["_orig_" + attr] != undefined) return;
		if (e.attributes[attr] == undefined) return;
		if (val == undefined) val = e.attributes[attr].value;
		e.setAttribute("_orig_" + attr, val);
	}
	function orig_load(e, attr) {
		if (e.attributes["_orig_"+attr] == undefined) return;
		e.attributes[attr].value = e.attributes["_orig_" + attr].value;
		e.removeAttribute("_orig_"+attr);
	}
	function g_to_text(e) {
		var text = find_child(e, "title").firstChild.nodeValue;
		return (text)
	}
	function g_to_func(e) {
		var func = g_to_text(e);
		// if there's any manipulation we want to do to the function
		// name before it's searched, do it here before returning.
		return (func);
	}
	function update_text(e) {
		var r = find_child(e, "rect");
		var t = find_child(e, "text");
		var w = parseFloat(r.attributes.width.value) -3;
		var txt = find_child(e, "title").textContent.replace(/\([^(]*\)$/,"");
		t.attributes.x.value = parseFloat(r.attributes.x.value) + 3;

		// Smaller than this size won't fit anything
		if (w < 2 * 12 * 0.59) {
			t.textContent = "";
			return;
		}

		t.textContent = txt;
		var sl = t.getSubStringLength(0, txt.length);
		// check if only whitespace or if we can fit the entire string into width w
		if (/^ *$/.test(txt) || sl < w)
			return;

		// this isn't perfect, but gives a good starting point
		// and avoids calling getSubStringLength too often
		var start = Math.floor((w/sl) * txt.length);
		for (var x = start; x > 0; x = x-2) {
			if (t.getSubStringLength(0, x + 2) <= w) {
				t.textContent = txt.substring(0, x) + "..";
				return;
			}
		}
		t.textContent = "";
	}

	// zoom
	function zoom_reset(e) {
		if (e.attributes != undefined) {
			orig_load(e, "x");
			orig_load(e, "width");
		}
		if (e.childNodes == undefined) return;
		for (var i = 0, c = e.childNodes; i < c.length; i++) {
			zoom_reset(c[i]);
		}
	}
	function zoom_child(e, x, ratio) {
		if (e.attributes != undefined) {
			if (e.attributes.x != undefined) {
				orig_save(e, "x");
				e.attributes.x.value = (parseFloat(e.attributes.x.value) - x - 10) * ratio + 10;
				if (e.tagName == "text")
					e.attributes.x.value = find_child(e.parentNode, "rect[x]").attributes.x.value + 3;
			}
			if (e.attributes.width != undefined) {
				orig_save(e, "width");
				e.attributes.width.value = parseFloat(e.attributes.width.value) * ratio;
			}
		}

		if (e.childNodes == undefined) return;
		for (var i = 0, c = e.childNodes; i < c.length; i++) {
			zoom_child(c[i], x - 10, ratio);
		}
	}
	function zoom_parent(e) {
		if (e.attributes) {
			if (e.attributes.x != undefined) {
				orig_save(e, "x");
				e.attributes.x.value = 10;
			}
			if (e.attributes.width != undefined) {
				orig_save(e, "width");
				e.attributes.width.value = parseInt(svg.width.baseVal.value) - (10 * 2);
			}
		}
		if (e.childNodes == undefined) return;
		for (var i = 0, c = e.childNodes; i < c.length; i++) {
			zoom_parent(c[i]);
		}
	}
	function zoom(node) {
		var attr = find_child(node, "rect").attributes;
		var width = parseFloat(attr.width.value);
		var xmin = parseFloat(attr.x.value);
		var xmax = parseFloat(xmin + width);
		var ymin = parseFloat(attr.y.value);
		var ratio = (svg.width.baseVal.value - 2 * 10) / width;

		// XXX: Workaround for JavaScript float issues (fix me)
		var fudge = 0.0001;

		unzoombtn.classList.remove("hide");

		var el = document.getElementById("frames").children;
		for (var i = 0; i < el.length; i++) {
			var e = el[i];
			var a = find_child(e, "rect").attributes;
			var ex = parseFloat(a.x.value);
			var ew = parseFloat(a.width.value);
			var upstack;
			// Is it an ancestor
			if (0 == 0) {
				upstack = parseFloat(a.y.value) > ymin;
			} else {
				upstack = parseFloat(a.y.value) < ymin;
			}
			if (upstack) {
				// Direct ancestor
				if (ex <= xmin && (ex+ew+fudge) >= xmax) {
					e.classList.add("parent");
					zoom_parent(e);
					update_text(e);
				}
				// not in current path
				else
					e.classList.add("hide");
			}
			// Children maybe
			else {
				// no common path
				if (ex < xmin || ex + fudge >= xmax) {
					e.classList.add("hide");
				}
				else {
					zoom_child(e, xmin, ratio);
					update_text(e);
				}
			}
		}
		search();
	}
	function unzoom(dont_update_text) {
		unzoombtn.classList.add("hide");
		var el = document.getElementById("frames").children;
		for(var i = 0; i < el.length; i++) {
			el[i].classList.remove("parent");
			el[i].classList.remove("hide");
			zoom_reset(el[i]);
			if(!dont_update_text) update_text(el[i]);
		}
		search();
	}
	function clearzoom() {
		unzoom();

		// remove zoom state
		var params = get_params();
		if (params.x) delete params.x;
		if (params.y) delete params.y;
		history.replaceState(null, null, parse_params(params));
	}

	// search
	function toggle_ignorecase() {
		ignorecase = !ignorecase;
		if (ignorecase) {
			ignorecaseBtn.classList.add("show");
		} else {
			ignorecaseBtn.classList.remove("show");
		}
		reset_search();
		search();
	}
	function reset_search() {
		var el = document.querySelectorAll("#frames rect");
		for (var i = 0; i < el.length; i++) {
			orig_load(el[i], "fill")
		}
		var params = get_params();
		delete params.s;
		history.replaceState(null, null, parse_params(params));
	}
	function search_prompt() {
		if (!searching) {
			var term = prompt("Enter a search term (regexp " +
			    "allowed, eg: ^ext4_)"
			    + (ignorecase ? ", ignoring case" : "")
			    + "\nPress Ctrl-i to toggle case sensitivity", "");
			if (term != null) search(term);
		} else {
			reset_search();
			searching = 0;
			currentSearchTerm = null;
			searchbtn.classList.remove("show");
			searchbtn.firstChild.nodeValue = "Search"
			matchedtxt.classList.add("hide");
			matchedtxt.firstChild.nodeValue = ""
		}
	}
	function search(term) {
		if (term) currentSearchTerm = term;

		var re = new RegExp(currentSearchTerm, ignorecase ? 'i' : '');
		var el = document.getElementById("frames").children;
		var matches = new Object();
		var maxwidth = 0;
		for (var i = 0; i < el.length; i++) {
			var e = el[i];
			var func = g_to_func(e);
			var rect = find_child(e, "rect");
			if (func == null || rect == null)
				continue;

			// Save max width. Only works as we have a root frame
			var w = parseFloat(rect.attributes.width.value);
			if (w > maxwidth)
				maxwidth = w;

			if (func.match(re)) {
				// highlight
				var x = parseFloat(rect.attributes.x.value);
				orig_save(rect, "fill");
				rect.attributes.fill.value = "rgb(230,0,230)";

				// remember matches
				if (matches[x] == undefined) {
					matches[x] = w;
				} else {
					if (w > matches[x]) {
						// overwrite with parent
						matches[x] = w;
					}
				}
				searching = 1;
			}
		}
		if (!searching)
			return;
		var params = get_params();
		params.s = currentSearchTerm;
		history.replaceState(null, null, parse_params(params));

		searchbtn.classList.add("show");
		searchbtn.firstChild.nodeValue = "Reset Search";

		// calculate percent matched, excluding vertical overlap
		var count = 0;
		var lastx = -1;
		var lastw = 0;
		var keys = Array();
		for (k in matches) {
			if (matches.hasOwnProperty(k))
				keys.push(k);
		}
		// sort the matched frames by their x location
		// ascending, then width descending
		keys.sort(function(a, b){
			return a - b;
		});
		// Step through frames saving only the biggest bottom-up frames
		// thanks to the sort order. This relies on the tree property
		// where children are always smaller than their parents.
		var fudge = 0.0001;	// JavaScript floating point
		for (var k in keys) {
			var x = parseFloat(keys[k]);
			var w = matches[keys[k]];
			if (x >= lastx + lastw - fudge) {
				count += w;
				lastx = x;
				lastw = w;
			}
		}
		// display matched percent
		matchedtxt.classList.remove("hide");
		var pct = 100 * count / maxwidth;
		if (pct != 100) pct = pct.toFixed(1)
		matchedtxt.firstChild.nodeValue = "Matched: " + pct + "%";
	}
]]>
</script>
<rect x="0.0" y="0" width="1200.0" height="1190.0" fill="url(#background)"  />
<text id="title" x="600.00" y="24" >08E</text>
<text id="details" x="10.00" y="1173" > </text>
<text id="unzoom" x="10.00" y="24" class="hide">Reset Zoom</text>
<text id="search" x="1090.00" y="24" >Search</text>
<text id="ignorecase" x="1174.00" y="24" >ic</text>
<text id="matched" x="1090.00" y="1173" > </text>
<g id="frames">
<g >
<title>[string]:20 (8 samples, 5.33%)</title><rect x="10.0" y="1125" width="62.9" height="15.0" fill="rgb(234,134,32)" rx="2" ry="2" />
<text  x="13.00" y="1135.5" >[strin..</text>
</g>
<g >
<title>evaluator.lua:infer (8 samples, 5.33%)</title><rect x="10.0" y="533" width="62.9" height="15.0" fill="rgb(250,210,50)" rx="2" ry="2" />
<text  x="13.00" y="543.5" >evalua..</text>
</g>
<g >
<title>evaluator.lua:infer (112 samples, 74.67%)</title><rect x="301.1" y="613" width="881.0" height="15.0" fill="rgb(250,210,50)" rx="2" ry="2" />
<text  x="304.07" y="623.5" >evaluator.lua:infer</text>
</g>
<g >
<title>evaluator.lua:infer (140 samples, 93.33%)</title><rect x="80.8" y="1061" width="1101.3" height="15.0" fill="rgb(250,210,50)" rx="2" ry="2" />
<text  x="83.80" y="1071.5" >evaluator.lua:infer</text>
</g>
<g >
<title>evaluator.lua:infer (8 samples, 5.33%)</title><rect x="10.0" y="1061" width="62.9" height="15.0" fill="rgb(250,210,50)" rx="2" ry="2" />
<text  x="13.00" y="1071.5" >evalua..</text>
</g>
<g >
<title>evaluator.lua:infer (120 samples, 80.00%)</title><rect x="238.1" y="629" width="944.0" height="15.0" fill="rgb(250,210,50)" rx="2" ry="2" />
<text  x="241.13" y="639.5" >evaluator.lua:infer</text>
</g>
<g >
<title>evaluator.lua:infer (139 samples, 92.67%)</title><rect x="88.7" y="885" width="1093.4" height="15.0" fill="rgb(250,210,50)" rx="2" ry="2" />
<text  x="91.67" y="895.5" >evaluator.lua:infer</text>
</g>
<g >
<title>evaluator.lua:infer (140 samples, 93.33%)</title><rect x="80.8" y="965" width="1101.3" height="15.0" fill="rgb(250,210,50)" rx="2" ry="2" />
<text  x="83.80" y="975.5" >evaluator.lua:infer</text>
</g>
<g >
<title>[string]:39 (9 samples, 6.00%)</title><rect x="537.1" y="421" width="70.8" height="15.0" fill="rgb(219,67,16)" rx="2" ry="2" />
<text  x="540.07" y="431.5" >[string]..</text>
</g>
<g >
<title>[string]:__eq (8 samples, 5.33%)</title><rect x="238.1" y="453" width="63.0" height="15.0" fill="rgb(207,11,2)" rx="2" ry="2" />
<text  x="241.13" y="463.5" >[strin..</text>
</g>
<g >
<title>[string]:39 (8 samples, 5.33%)</title><rect x="977.6" y="277" width="62.9" height="15.0" fill="rgb(219,67,16)" rx="2" ry="2" />
<text  x="980.60" y="287.5" >[strin..</text>
</g>
<g >
<title>evaluator.lua:infer (129 samples, 86.00%)</title><rect x="167.3" y="677" width="1014.8" height="15.0" fill="rgb(250,210,50)" rx="2" ry="2" />
<text  x="170.33" y="687.5" >evaluator.lua:infer</text>
</g>
<g >
<title>evaluator.lua:infer (138 samples, 92.00%)</title><rect x="96.5" y="805" width="1085.6" height="15.0" fill="rgb(250,210,50)" rx="2" ry="2" />
<text  x="99.53" y="815.5" >evaluator.lua:infer</text>
</g>
<g >
<title>evaluator.lua:infer (140 samples, 93.33%)</title><rect x="80.8" y="1125" width="1101.3" height="15.0" fill="rgb(250,210,50)" rx="2" ry="2" />
<text  x="83.80" y="1135.5" >evaluator.lua:infer</text>
</g>
<g >
<title>evaluator.lua:infer (8 samples, 5.33%)</title><rect x="10.0" y="517" width="62.9" height="15.0" fill="rgb(250,210,50)" rx="2" ry="2" />
<text  x="13.00" y="527.5" >evalua..</text>
</g>
<g >
<title>evaluator.lua:check (8 samples, 5.33%)</title><rect x="977.6" y="309" width="62.9" height="15.0" fill="rgb(242,174,41)" rx="2" ry="2" />
<text  x="980.60" y="319.5" >evalua..</text>
</g>
<g >
<title>evaluator.lua:infer (26 samples, 17.33%)</title><rect x="977.6" y="341" width="204.5" height="15.0" fill="rgb(250,210,50)" rx="2" ry="2" />
<text  x="980.60" y="351.5" >evaluator.lua:infer</text>
</g>
<g >
<title>evaluator.lua:infer (18 samples, 12.00%)</title><rect x="1040.5" y="325" width="141.6" height="15.0" fill="rgb(250,210,50)" rx="2" ry="2" />
<text  x="1043.53" y="335.5" >evaluator.lua:infer</text>
</g>
<g >
<title>[string]:__eq (9 samples, 6.00%)</title><rect x="906.8" y="277" width="70.8" height="15.0" fill="rgb(207,11,2)" rx="2" ry="2" />
<text  x="909.80" y="287.5" >[string..</text>
</g>
<g >
<title>evaluator.lua:infer (140 samples, 93.33%)</title><rect x="80.8" y="1109" width="1101.3" height="15.0" fill="rgb(250,210,50)" rx="2" ry="2" />
<text  x="83.80" y="1119.5" >evaluator.lua:infer</text>
</g>
<g >
<title>evaluator.lua:infer (98 samples, 65.33%)</title><rect x="411.2" y="549" width="770.9" height="15.0" fill="rgb(250,210,50)" rx="2" ry="2" />
<text  x="414.20" y="559.5" >evaluator.lua:infer</text>
</g>
<g >
<title>evaluator.lua:infer (100 samples, 66.67%)</title><rect x="395.5" y="565" width="786.6" height="15.0" fill="rgb(250,210,50)" rx="2" ry="2" />
<text  x="398.47" y="575.5" >evaluator.lua:infer</text>
</g>
<g >
<title>evaluator.lua:infer (8 samples, 5.33%)</title><rect x="10.0" y="645" width="62.9" height="15.0" fill="rgb(250,210,50)" rx="2" ry="2" />
<text  x="13.00" y="655.5" >evalua..</text>
</g>
<g >
<title>evaluator.lua:infer (8 samples, 5.33%)</title><rect x="10.0" y="1077" width="62.9" height="15.0" fill="rgb(250,210,50)" rx="2" ry="2" />
<text  x="13.00" y="1087.5" >evalua..</text>
</g>
<g >
<title>evaluator.lua:infer (8 samples, 5.33%)</title><rect x="10.0" y="661" width="62.9" height="15.0" fill="rgb(250,210,50)" rx="2" ry="2" />
<text  x="13.00" y="671.5" >evalua..</text>
</g>
<g >
<title>evaluator.lua:infer (106 samples, 70.67%)</title><rect x="348.3" y="597" width="833.8" height="15.0" fill="rgb(250,210,50)" rx="2" ry="2" />
<text  x="351.27" y="607.5" >evaluator.lua:infer</text>
</g>
<g >
<title>evaluator.lua:infer (8 samples, 5.33%)</title><rect x="10.0" y="597" width="62.9" height="15.0" fill="rgb(250,210,50)" rx="2" ry="2" />
<text  x="13.00" y="607.5" >evalua..</text>
</g>
<g >
<title>evaluator.lua:infer (92 samples, 61.33%)</title><rect x="458.4" y="533" width="723.7" height="15.0" fill="rgb(250,210,50)" rx="2" ry="2" />
<text  x="461.40" y="543.5" >evaluator.lua:infer</text>
</g>
<g >
<title>evaluator.lua:infer (8 samples, 5.33%)</title><rect x="10.0" y="757" width="62.9" height="15.0" fill="rgb(250,210,50)" rx="2" ry="2" />
<text  x="13.00" y="767.5" >evalua..</text>
</g>
<g >
<title>evaluator.lua:infer (8 samples, 5.33%)</title><rect x="10.0" y="197" width="62.9" height="15.0" fill="rgb(250,210,50)" rx="2" ry="2" />
<text  x="13.00" y="207.5" >evalua..</text>
</g>
<g >
<title>evaluator.lua:infer (8 samples, 5.33%)</title><rect x="10.0" y="821" width="62.9" height="15.0" fill="rgb(250,210,50)" rx="2" ry="2" />
<text  x="13.00" y="831.5" >evalua..</text>
</g>
<g >
<title>[string]:39 (8 samples, 5.33%)</title><rect x="10.0" y="85" width="62.9" height="15.0" fill="rgb(219,67,16)" rx="2" ry="2" />
<text  x="13.00" y="95.5" >[strin..</text>
</g>
<g >
<title>evaluator.lua:infer (35 samples, 23.33%)</title><rect x="906.8" y="357" width="275.3" height="15.0" fill="rgb(250,210,50)" rx="2" ry="2" />
<text  x="909.80" y="367.5" >evaluator.lua:infer</text>
</g>
<g >
<title>terms-generators.lua:__eq (8 samples, 5.33%)</title><rect x="238.1" y="421" width="63.0" height="15.0" fill="rgb(236,144,34)" rx="2" ry="2" />
<text  x="241.13" y="431.5" >terms-..</text>
</g>
<g >
<title>evaluator.lua:infer (133 samples, 88.67%)</title><rect x="135.9" y="741" width="1046.2" height="15.0" fill="rgb(250,210,50)" rx="2" ry="2" />
<text  x="138.87" y="751.5" >evaluator.lua:infer</text>
</g>
<g >
<title>evaluator.lua:infer (8 samples, 5.33%)</title><rect x="10.0" y="805" width="62.9" height="15.0" fill="rgb(250,210,50)" rx="2" ry="2" />
<text  x="13.00" y="815.5" >evalua..</text>
</g>
<g >
<title>evaluator.lua:infer (84 samples, 56.00%)</title><rect x="521.3" y="501" width="660.8" height="15.0" fill="rgb(250,210,50)" rx="2" ry="2" />
<text  x="524.33" y="511.5" >evaluator.lua:infer</text>
</g>
<g >
<title>evaluator.lua:infer (61 samples, 40.67%)</title><rect x="702.3" y="437" width="479.8" height="15.0" fill="rgb(250,210,50)" rx="2" ry="2" />
<text  x="705.27" y="447.5" >evaluator.lua:infer</text>
</g>
<g >
<title>evaluator.lua:infer (16 samples, 10.67%)</title><rect x="1056.3" y="309" width="125.8" height="15.0" fill="rgb(250,210,50)" rx="2" ry="2" />
<text  x="1059.27" y="319.5" >evaluator.lua:i..</text>
</g>
<g >
<title>evaluator.lua:infer (140 samples, 93.33%)</title><rect x="80.8" y="1029" width="1101.3" height="15.0" fill="rgb(250,210,50)" rx="2" ry="2" />
<text  x="83.80" y="1039.5" >evaluator.lua:infer</text>
</g>
<g >
<title>evaluator.lua:infer (8 samples, 5.33%)</title><rect x="10.0" y="853" width="62.9" height="15.0" fill="rgb(250,210,50)" rx="2" ry="2" />
<text  x="13.00" y="863.5" >evalua..</text>
</g>
<g >
<title>evaluator.lua:infer (8 samples, 5.33%)</title><rect x="10.0" y="277" width="62.9" height="15.0" fill="rgb(250,210,50)" rx="2" ry="2" />
<text  x="13.00" y="287.5" >evalua..</text>
</g>
<g >
<title>[string]:__eq (8 samples, 5.33%)</title><rect x="977.6" y="261" width="62.9" height="15.0" fill="rgb(207,11,2)" rx="2" ry="2" />
<text  x="980.60" y="271.5" >[strin..</text>
</g>
<g >
<title>evaluator.lua:infer (8 samples, 5.33%)</title><rect x="10.0" y="341" width="62.9" height="15.0" fill="rgb(250,210,50)" rx="2" ry="2" />
<text  x="13.00" y="351.5" >evalua..</text>
</g>
<g >
<title>evaluator.lua:infer (8 samples, 5.33%)</title><rect x="10.0" y="677" width="62.9" height="15.0" fill="rgb(250,210,50)" rx="2" ry="2" />
<text  x="13.00" y="687.5" >evalua..</text>
</g>
<g >
<title>[string]:__eq (8 samples, 5.33%)</title><rect x="977.6" y="229" width="62.9" height="15.0" fill="rgb(207,11,2)" rx="2" ry="2" />
<text  x="980.60" y="239.5" >[strin..</text>
</g>
<g >
<title>evaluator.lua:infer (13 samples, 8.67%)</title><rect x="1079.9" y="277" width="102.2" height="15.0" fill="rgb(250,210,50)" rx="2" ry="2" />
<text  x="1082.87" y="287.5" >evaluator.lu..</text>
</g>
<g >
<title>evaluator.lua:infer (8 samples, 5.33%)</title><rect x="10.0" y="325" width="62.9" height="15.0" fill="rgb(250,210,50)" rx="2" ry="2" />
<text  x="13.00" y="335.5" >evalua..</text>
</g>
<g >
<title>evaluator.lua:infer (8 samples, 5.33%)</title><rect x="10.0" y="373" width="62.9" height="15.0" fill="rgb(250,210,50)" rx="2" ry="2" />
<text  x="13.00" y="383.5" >evalua..</text>
</g>
<g >
<title>[string]:8 (8 samples, 5.33%)</title><rect x="238.1" y="533" width="63.0" height="15.0" fill="rgb(205,2,0)" rx="2" ry="2" />
<text  x="241.13" y="543.5" >[strin..</text>
</g>
<g >
<title>evaluator.lua:infer (8 samples, 5.33%)</title><rect x="10.0" y="981" width="62.9" height="15.0" fill="rgb(250,210,50)" rx="2" ry="2" />
<text  x="13.00" y="991.5" >evalua..</text>
</g>
<g >
<title>evaluator.lua:infer (8 samples, 5.33%)</title><rect x="10.0" y="917" width="62.9" height="15.0" fill="rgb(250,210,50)" rx="2" ry="2" />
<text  x="13.00" y="927.5" >evalua..</text>
</g>
<g >
<title>evaluator.lua:infer (8 samples, 5.33%)</title><rect x="10.0" y="213" width="62.9" height="15.0" fill="rgb(250,210,50)" rx="2" ry="2" />
<text  x="13.00" y="223.5" >evalua..</text>
</g>
<g >
<title>evaluator.lua:infer (10 samples, 6.67%)</title><rect x="1103.5" y="261" width="78.6" height="15.0" fill="rgb(250,210,50)" rx="2" ry="2" />
<text  x="1106.47" y="271.5" >evaluator..</text>
</g>
<g >
<title>evaluator.lua:infer (55 samples, 36.67%)</title><rect x="749.5" y="421" width="432.6" height="15.0" fill="rgb(250,210,50)" rx="2" ry="2" />
<text  x="752.47" y="431.5" >evaluator.lua:infer</text>
</g>
<g >
<title>evaluator.lua:infer (8 samples, 5.33%)</title><rect x="10.0" y="485" width="62.9" height="15.0" fill="rgb(250,210,50)" rx="2" ry="2" />
<text  x="13.00" y="495.5" >evalua..</text>
</g>
<g >
<title>evaluator.lua:infer (15 samples, 10.00%)</title><rect x="1064.1" y="293" width="118.0" height="15.0" fill="rgb(250,210,50)" rx="2" ry="2" />
<text  x="1067.13" y="303.5" >evaluator.lua:..</text>
</g>
<g >
<title>evaluator.lua:infer (8 samples, 5.33%)</title><rect x="10.0" y="501" width="62.9" height="15.0" fill="rgb(250,210,50)" rx="2" ry="2" />
<text  x="13.00" y="511.5" >evalua..</text>
</g>
<g >
<title>evaluator.lua:infer (8 samples, 5.33%)</title><rect x="10.0" y="437" width="62.9" height="15.0" fill="rgb(250,210,50)" rx="2" ry="2" />
<text  x="13.00" y="447.5" >evalua..</text>
</g>
<g >
<title>evaluator.lua:infer (140 samples, 93.33%)</title><rect x="80.8" y="1077" width="1101.3" height="15.0" fill="rgb(250,210,50)" rx="2" ry="2" />
<text  x="83.80" y="1087.5" >evaluator.lua:infer</text>
</g>
<g >
<title>evaluator.lua:infer (137 samples, 91.33%)</title><rect x="104.4" y="773" width="1077.7" height="15.0" fill="rgb(250,210,50)" rx="2" ry="2" />
<text  x="107.40" y="783.5" >evaluator.lua:infer</text>
</g>
<g >
<title>evaluator.lua:infer (8 samples, 5.33%)</title><rect x="10.0" y="965" width="62.9" height="15.0" fill="rgb(250,210,50)" rx="2" ry="2" />
<text  x="13.00" y="975.5" >evalua..</text>
</g>
<g >
<title>evaluator.lua:check (8 samples, 5.33%)</title><rect x="10.0" y="117" width="62.9" height="15.0" fill="rgb(242,174,41)" rx="2" ry="2" />
<text  x="13.00" y="127.5" >evalua..</text>
</g>
<g >
<title>[string]:8 (8 samples, 5.33%)</title><rect x="10.0" y="53" width="62.9" height="15.0" fill="rgb(205,2,0)" rx="2" ry="2" />
<text  x="13.00" y="63.5" >[strin..</text>
</g>
<g >
<title>all (150 samples, 100%)</title><rect x="10.0" y="1141" width="1180.0" height="15.0" fill="rgb(213,39,9)" rx="2" ry="2" />
<text  x="13.00" y="1151.5" ></text>
</g>
<g >
<title>evaluator.lua:infer (105 samples, 70.00%)</title><rect x="356.1" y="581" width="826.0" height="15.0" fill="rgb(250,210,50)" rx="2" ry="2" />
<text  x="359.13" y="591.5" >evaluator.lua:infer</text>
</g>
<g >
<title>[string]:__eq (9 samples, 6.00%)</title><rect x="906.8" y="245" width="70.8" height="15.0" fill="rgb(207,11,2)" rx="2" ry="2" />
<text  x="909.80" y="255.5" >[string..</text>
</g>
<g >
<title>evaluator.lua:infer (8 samples, 5.33%)</title><rect x="10.0" y="149" width="62.9" height="15.0" fill="rgb(250,210,50)" rx="2" ry="2" />
<text  x="13.00" y="159.5" >evalua..</text>
</g>
<g >
<title>evaluator.lua:infer (8 samples, 5.33%)</title><rect x="10.0" y="837" width="62.9" height="15.0" fill="rgb(250,210,50)" rx="2" ry="2" />
<text  x="13.00" y="847.5" >evalua..</text>
</g>
<g >
<title>evaluator.lua:check (9 samples, 6.00%)</title><rect x="537.1" y="453" width="70.8" height="15.0" fill="rgb(242,174,41)" rx="2" ry="2" />
<text  x="540.07" y="463.5" >evaluato..</text>
</g>
<g >
<title>evaluator.lua:infer (8 samples, 5.33%)</title><rect x="10.0" y="693" width="62.9" height="15.0" fill="rgb(250,210,50)" rx="2" ry="2" />
<text  x="13.00" y="703.5" >evalua..</text>
</g>
<g >
<title>evaluator.lua:infer (138 samples, 92.00%)</title><rect x="96.5" y="869" width="1085.6" height="15.0" fill="rgb(250,210,50)" rx="2" ry="2" />
<text  x="99.53" y="879.5" >evaluator.lua:infer</text>
</g>
<g >
<title>evaluator.lua:infer (8 samples, 5.33%)</title><rect x="10.0" y="357" width="62.9" height="15.0" fill="rgb(250,210,50)" rx="2" ry="2" />
<text  x="13.00" y="367.5" >evalua..</text>
</g>
<g >
<title>evaluator.lua:infer (140 samples, 93.33%)</title><rect x="80.8" y="997" width="1101.3" height="15.0" fill="rgb(250,210,50)" rx="2" ry="2" />
<text  x="83.80" y="1007.5" >evaluator.lua:infer</text>
</g>
<g >
<title>evaluator.lua:check (8 samples, 5.33%)</title><rect x="977.6" y="325" width="62.9" height="15.0" fill="rgb(242,174,41)" rx="2" ry="2" />
<text  x="980.60" y="335.5" >evalua..</text>
</g>
<g >
<title>evaluator.lua:check (9 samples, 6.00%)</title><rect x="906.8" y="325" width="70.8" height="15.0" fill="rgb(242,174,41)" rx="2" ry="2" />
<text  x="909.80" y="335.5" >evaluat..</text>
</g>
<g >
<title>[string]:__eq (8 samples, 5.33%)</title><rect x="10.0" y="101" width="62.9" height="15.0" fill="rgb(207,11,2)" rx="2" ry="2" />
<text  x="13.00" y="111.5" >[strin..</text>
</g>
<g >
<title>evaluator.lua:infer (8 samples, 5.33%)</title><rect x="10.0" y="1013" width="62.9" height="15.0" fill="rgb(250,210,50)" rx="2" ry="2" />
<text  x="13.00" y="1023.5" >evalua..</text>
</g>
<g >
<title>evaluator.lua:infer (8 samples, 5.33%)</title><rect x="10.0" y="773" width="62.9" height="15.0" fill="rgb(250,210,50)" rx="2" ry="2" />
<text  x="13.00" y="783.5" >evalua..</text>
</g>
<g >
<title>evaluator.lua:infer (8 samples, 5.33%)</title><rect x="10.0" y="1045" width="62.9" height="15.0" fill="rgb(250,210,50)" rx="2" ry="2" />
<text  x="13.00" y="1055.5" >evalua..</text>
</g>
<g >
<title>evaluator.lua:infer (133 samples, 88.67%)</title><rect x="135.9" y="757" width="1046.2" height="15.0" fill="rgb(250,210,50)" rx="2" ry="2" />
<text  x="138.87" y="767.5" >evaluator.lua:infer</text>
</g>
<g >
<title>evaluator.lua:infer (89 samples, 59.33%)</title><rect x="482.0" y="517" width="700.1" height="15.0" fill="rgb(250,210,50)" rx="2" ry="2" />
<text  x="485.00" y="527.5" >evaluator.lua:infer</text>
</g>
<g >
<title>evaluator.lua:infer (8 samples, 5.33%)</title><rect x="10.0" y="245" width="62.9" height="15.0" fill="rgb(250,210,50)" rx="2" ry="2" />
<text  x="13.00" y="255.5" >evalua..</text>
</g>
<g >
<title>[string]:__eq (8 samples, 5.33%)</title><rect x="10.0" y="69" width="62.9" height="15.0" fill="rgb(207,11,2)" rx="2" ry="2" />
<text  x="13.00" y="79.5" >[strin..</text>
</g>
<g >
<title>evaluator.lua:infer (8 samples, 5.33%)</title><rect x="10.0" y="261" width="62.9" height="15.0" fill="rgb(250,210,50)" rx="2" ry="2" />
<text  x="13.00" y="271.5" >evalua..</text>
</g>
<g >
<title>evaluator.lua:infer (137 samples, 91.33%)</title><rect x="104.4" y="789" width="1077.7" height="15.0" fill="rgb(250,210,50)" rx="2" ry="2" />
<text  x="107.40" y="799.5" >evaluator.lua:infer</text>
</g>
<g >
<title>evaluator.lua:infer (8 samples, 5.33%)</title><rect x="10.0" y="293" width="62.9" height="15.0" fill="rgb(250,210,50)" rx="2" ry="2" />
<text  x="13.00" y="303.5" >evalua..</text>
</g>
<g >
<title>[string]:__eq (9 samples, 6.00%)</title><rect x="906.8" y="309" width="70.8" height="15.0" fill="rgb(207,11,2)" rx="2" ry="2" />
<text  x="909.80" y="319.5" >[string..</text>
</g>
<g >
<title>[string]:__eq (9 samples, 6.00%)</title><rect x="537.1" y="405" width="70.8" height="15.0" fill="rgb(207,11,2)" rx="2" ry="2" />
<text  x="540.07" y="415.5" >[string]..</text>
</g>
<g >
<title>evaluator.lua:infer (8 samples, 5.33%)</title><rect x="10.0" y="629" width="62.9" height="15.0" fill="rgb(250,210,50)" rx="2" ry="2" />
<text  x="13.00" y="639.5" >evalua..</text>
</g>
<g >
<title>evaluator.lua:infer (8 samples, 5.33%)</title><rect x="10.0" y="997" width="62.9" height="15.0" fill="rgb(250,210,50)" rx="2" ry="2" />
<text  x="13.00" y="1007.5" >evalua..</text>
</g>
<g >
<title>evaluator.lua:infer (8 samples, 5.33%)</title><rect x="10.0" y="725" width="62.9" height="15.0" fill="rgb(250,210,50)" rx="2" ry="2" />
<text  x="13.00" y="735.5" >evalua..</text>
</g>
<g >
<title>evaluator.lua:infer (44 samples, 29.33%)</title><rect x="836.0" y="389" width="346.1" height="15.0" fill="rgb(250,210,50)" rx="2" ry="2" />
<text  x="839.00" y="399.5" >evaluator.lua:infer</text>
</g>
<g >
<title>evaluator.lua:infer (8 samples, 5.33%)</title><rect x="10.0" y="741" width="62.9" height="15.0" fill="rgb(250,210,50)" rx="2" ry="2" />
<text  x="13.00" y="751.5" >evalua..</text>
</g>
<g >
<title>[string]:15 (8 samples, 5.33%)</title><rect x="238.1" y="501" width="63.0" height="15.0" fill="rgb(208,15,3)" rx="2" ry="2" />
<text  x="241.13" y="511.5" >[strin..</text>
</g>
<g >
<title>evaluator.lua:infer (133 samples, 88.67%)</title><rect x="135.9" y="725" width="1046.2" height="15.0" fill="rgb(250,210,50)" rx="2" ry="2" />
<text  x="138.87" y="735.5" >evaluator.lua:infer</text>
</g>
<g >
<title>evaluator.lua:infer (48 samples, 32.00%)</title><rect x="804.5" y="405" width="377.6" height="15.0" fill="rgb(250,210,50)" rx="2" ry="2" />
<text  x="807.53" y="415.5" >evaluator.lua:infer</text>
</g>
<g >
<title>[string]:__eq (8 samples, 5.33%)</title><rect x="238.1" y="549" width="63.0" height="15.0" fill="rgb(207,11,2)" rx="2" ry="2" />
<text  x="241.13" y="559.5" >[strin..</text>
</g>
<g >
<title>evaluator.lua:infer (8 samples, 5.33%)</title><rect x="10.0" y="933" width="62.9" height="15.0" fill="rgb(250,210,50)" rx="2" ry="2" />
<text  x="13.00" y="943.5" >evalua..</text>
</g>
<g >
<title>evaluator.lua:infer (8 samples, 5.33%)</title><rect x="10.0" y="1029" width="62.9" height="15.0" fill="rgb(250,210,50)" rx="2" ry="2" />
<text  x="13.00" y="1039.5" >evalua..</text>
</g>
<g >
<title>evaluator.lua:check (8 samples, 5.33%)</title><rect x="238.1" y="597" width="63.0" height="15.0" fill="rgb(242,174,41)" rx="2" ry="2" />
<text  x="241.13" y="607.5" >evalua..</text>
</g>
<g >
<title>evaluator.lua:infer (130 samples, 86.67%)</title><rect x="159.5" y="693" width="1022.6" height="15.0" fill="rgb(250,210,50)" rx="2" ry="2" />
<text  x="162.47" y="703.5" >evaluator.lua:infer</text>
</g>
<g >
<title>[string]:__eq (8 samples, 5.33%)</title><rect x="238.1" y="581" width="63.0" height="15.0" fill="rgb(207,11,2)" rx="2" ry="2" />
<text  x="241.13" y="591.5" >[strin..</text>
</g>
<g >
<title>evaluator.lua:infer (8 samples, 5.33%)</title><rect x="10.0" y="453" width="62.9" height="15.0" fill="rgb(250,210,50)" rx="2" ry="2" />
<text  x="13.00" y="463.5" >evalua..</text>
</g>
<g >
<title>evaluator.lua:infer (8 samples, 5.33%)</title><rect x="10.0" y="549" width="62.9" height="15.0" fill="rgb(250,210,50)" rx="2" ry="2" />
<text  x="13.00" y="559.5" >evalua..</text>
</g>
<g >
<title>evaluator.lua:infer (139 samples, 92.67%)</title><rect x="88.7" y="933" width="1093.4" height="15.0" fill="rgb(250,210,50)" rx="2" ry="2" />
<text  x="91.67" y="943.5" >evaluator.lua:infer</text>
</g>
<g >
<title>evaluator.lua:infer (8 samples, 5.33%)</title><rect x="10.0" y="421" width="62.9" height="15.0" fill="rgb(250,210,50)" rx="2" ry="2" />
<text  x="13.00" y="431.5" >evalua..</text>
</g>
<g >
<title>evaluator.lua:infer (138 samples, 92.00%)</title><rect x="96.5" y="837" width="1085.6" height="15.0" fill="rgb(250,210,50)" rx="2" ry="2" />
<text  x="99.53" y="847.5" >evaluator.lua:infer</text>
</g>
<g >
<title>evaluator.lua:infer (8 samples, 5.33%)</title><rect x="10.0" y="405" width="62.9" height="15.0" fill="rgb(250,210,50)" rx="2" ry="2" />
<text  x="13.00" y="415.5" >evalua..</text>
</g>
<g >
<title>evaluator.lua:check (8 samples, 5.33%)</title><rect x="10.0" y="133" width="62.9" height="15.0" fill="rgb(242,174,41)" rx="2" ry="2" />
<text  x="13.00" y="143.5" >evalua..</text>
</g>
<g >
<title>[string]:17 (8 samples, 5.33%)</title><rect x="238.1" y="469" width="63.0" height="15.0" fill="rgb(245,186,44)" rx="2" ry="2" />
<text  x="241.13" y="479.5" >[strin..</text>
</g>
<g >
<title>evaluator.lua:infer (8 samples, 5.33%)</title><rect x="10.0" y="901" width="62.9" height="15.0" fill="rgb(250,210,50)" rx="2" ry="2" />
<text  x="13.00" y="911.5" >evalua..</text>
</g>
<g >
<title>evaluator.lua:infer (8 samples, 5.33%)</title><rect x="10.0" y="885" width="62.9" height="15.0" fill="rgb(250,210,50)" rx="2" ry="2" />
<text  x="13.00" y="895.5" >evalua..</text>
</g>
<g >
<title>evaluator.lua:infer (67 samples, 44.67%)</title><rect x="655.1" y="453" width="527.0" height="15.0" fill="rgb(250,210,50)" rx="2" ry="2" />
<text  x="658.07" y="463.5" >evaluator.lua:infer</text>
</g>
<g >
<title>[string]:14 (8 samples, 5.33%)</title><rect x="238.1" y="437" width="63.0" height="15.0" fill="rgb(214,45,10)" rx="2" ry="2" />
<text  x="241.13" y="447.5" >[strin..</text>
</g>
<g >
<title>[string]:8 (9 samples, 6.00%)</title><rect x="906.8" y="261" width="70.8" height="15.0" fill="rgb(205,2,0)" rx="2" ry="2" />
<text  x="909.80" y="271.5" >[string..</text>
</g>
<g >
<title>evaluator.lua:infer (140 samples, 93.33%)</title><rect x="80.8" y="1093" width="1101.3" height="15.0" fill="rgb(250,210,50)" rx="2" ry="2" />
<text  x="83.80" y="1103.5" >evaluator.lua:infer</text>
</g>
<g >
<title>evaluator.lua:infer (8 samples, 5.33%)</title><rect x="10.0" y="469" width="62.9" height="15.0" fill="rgb(250,210,50)" rx="2" ry="2" />
<text  x="13.00" y="479.5" >evalua..</text>
</g>
<g >
<title>[string]:__eq (9 samples, 6.00%)</title><rect x="537.1" y="373" width="70.8" height="15.0" fill="rgb(207,11,2)" rx="2" ry="2" />
<text  x="540.07" y="383.5" >[string]..</text>
</g>
<g >
<title>[string]:39 (8 samples, 5.33%)</title><rect x="238.1" y="565" width="63.0" height="15.0" fill="rgb(219,67,16)" rx="2" ry="2" />
<text  x="241.13" y="575.5" >[strin..</text>
</g>
<g >
<title>evaluator.lua:infer (73 samples, 48.67%)</title><rect x="607.9" y="469" width="574.2" height="15.0" fill="rgb(250,210,50)" rx="2" ry="2" />
<text  x="610.87" y="479.5" >evaluator.lua:infer</text>
</g>
<g >
<title>[string]:__eq (8 samples, 5.33%)</title><rect x="238.1" y="485" width="63.0" height="15.0" fill="rgb(207,11,2)" rx="2" ry="2" />
<text  x="241.13" y="495.5" >[strin..</text>
</g>
<g >
<title>evaluator.lua:infer (8 samples, 5.33%)</title><rect x="10.0" y="229" width="62.9" height="15.0" fill="rgb(250,210,50)" rx="2" ry="2" />
<text  x="13.00" y="239.5" >evalua..</text>
</g>
<g >
<title>[string]:require (8 samples, 5.33%)</title><rect x="10.0" y="1109" width="62.9" height="15.0" fill="rgb(225,94,22)" rx="2" ry="2" />
<text  x="13.00" y="1119.5" >[strin..</text>
</g>
<g >
<title>evaluator.lua:infer (140 samples, 93.33%)</title><rect x="80.8" y="1013" width="1101.3" height="15.0" fill="rgb(250,210,50)" rx="2" ry="2" />
<text  x="83.80" y="1023.5" >evaluator.lua:infer</text>
</g>
<g >
<title>evaluator.lua:check (9 samples, 6.00%)</title><rect x="537.1" y="469" width="70.8" height="15.0" fill="rgb(242,174,41)" rx="2" ry="2" />
<text  x="540.07" y="479.5" >evaluato..</text>
</g>
<g >
<title>evaluator.lua:check (8 samples, 5.33%)</title><rect x="238.1" y="613" width="63.0" height="15.0" fill="rgb(242,174,41)" rx="2" ry="2" />
<text  x="241.13" y="623.5" >evalua..</text>
</g>
<g >
<title>evaluator.lua:infer (139 samples, 92.67%)</title><rect x="88.7" y="917" width="1093.4" height="15.0" fill="rgb(250,210,50)" rx="2" ry="2" />
<text  x="91.67" y="927.5" >evaluator.lua:infer</text>
</g>
<g >
<title>[string]:__eq (9 samples, 6.00%)</title><rect x="537.1" y="437" width="70.8" height="15.0" fill="rgb(207,11,2)" rx="2" ry="2" />
<text  x="540.07" y="447.5" >[string]..</text>
</g>
<g >
<title>evaluator.lua:infer (8 samples, 5.33%)</title><rect x="10.0" y="949" width="62.9" height="15.0" fill="rgb(250,210,50)" rx="2" ry="2" />
<text  x="13.00" y="959.5" >evalua..</text>
</g>
<g >
<title>evaluator.lua:infer (140 samples, 93.33%)</title><rect x="80.8" y="949" width="1101.3" height="15.0" fill="rgb(250,210,50)" rx="2" ry="2" />
<text  x="83.80" y="959.5" >evaluator.lua:infer</text>
</g>
<g >
<title>[string]:8 (9 samples, 6.00%)</title><rect x="537.1" y="389" width="70.8" height="15.0" fill="rgb(205,2,0)" rx="2" ry="2" />
<text  x="540.07" y="399.5" >[string]:8</text>
</g>
<g >
<title>evaluator.lua:infer (8 samples, 5.33%)</title><rect x="10.0" y="165" width="62.9" height="15.0" fill="rgb(250,210,50)" rx="2" ry="2" />
<text  x="13.00" y="175.5" >evalua..</text>
</g>
<g >
<title>evaluator.lua:infer (138 samples, 92.00%)</title><rect x="96.5" y="853" width="1085.6" height="15.0" fill="rgb(250,210,50)" rx="2" ry="2" />
<text  x="99.53" y="863.5" >evaluator.lua:infer</text>
</g>
<g >
<title>evaluator.lua:infer (8 samples, 5.33%)</title><rect x="10.0" y="709" width="62.9" height="15.0" fill="rgb(250,210,50)" rx="2" ry="2" />
<text  x="13.00" y="719.5" >evalua..</text>
</g>
<g >
<title>evaluator.lua:infer (140 samples, 93.33%)</title><rect x="80.8" y="981" width="1101.3" height="15.0" fill="rgb(250,210,50)" rx="2" ry="2" />
<text  x="83.80" y="991.5" >evaluator.lua:infer</text>
</g>
<g >
<title>[string]:__eq (8 samples, 5.33%)</title><rect x="238.1" y="517" width="63.0" height="15.0" fill="rgb(207,11,2)" rx="2" ry="2" />
<text  x="241.13" y="527.5" >[strin..</text>
</g>
<g >
<title>evaluator.lua:infer (139 samples, 92.67%)</title><rect x="88.7" y="901" width="1093.4" height="15.0" fill="rgb(250,210,50)" rx="2" ry="2" />
<text  x="91.67" y="911.5" >evaluator.lua:infer</text>
</g>
<g >
<title>evaluator.lua:infer (8 samples, 5.33%)</title><rect x="10.0" y="181" width="62.9" height="15.0" fill="rgb(250,210,50)" rx="2" ry="2" />
<text  x="13.00" y="191.5" >evalua..</text>
</g>
<g >
<title>evaluator.lua:infer (8 samples, 5.33%)</title><rect x="10.0" y="581" width="62.9" height="15.0" fill="rgb(250,210,50)" rx="2" ry="2" />
<text  x="13.00" y="591.5" >evalua..</text>
</g>
<g >
<title>evaluator.lua:infer (132 samples, 88.00%)</title><rect x="143.7" y="709" width="1038.4" height="15.0" fill="rgb(250,210,50)" rx="2" ry="2" />
<text  x="146.73" y="719.5" >evaluator.lua:infer</text>
</g>
<g >
<title>[string]:39 (9 samples, 6.00%)</title><rect x="906.8" y="293" width="70.8" height="15.0" fill="rgb(219,67,16)" rx="2" ry="2" />
<text  x="909.80" y="303.5" >[string..</text>
</g>
<g >
<title>evaluator.lua:infer (8 samples, 5.33%)</title><rect x="10.0" y="565" width="62.9" height="15.0" fill="rgb(250,210,50)" rx="2" ry="2" />
<text  x="13.00" y="575.5" >evalua..</text>
</g>
<g >
<title>evaluator.lua:infer (8 samples, 5.33%)</title><rect x="10.0" y="789" width="62.9" height="15.0" fill="rgb(250,210,50)" rx="2" ry="2" />
<text  x="13.00" y="799.5" >evalua..</text>
</g>
<g >
<title>[string]:__eq (8 samples, 5.33%)</title><rect x="977.6" y="293" width="62.9" height="15.0" fill="rgb(207,11,2)" rx="2" ry="2" />
<text  x="980.60" y="303.5" >[strin..</text>
</g>
<g >
<title>[string]:8 (8 samples, 5.33%)</title><rect x="977.6" y="245" width="62.9" height="15.0" fill="rgb(205,2,0)" rx="2" ry="2" />
<text  x="980.60" y="255.5" >[strin..</text>
</g>
<g >
<title>evaluator.lua:infer (82 samples, 54.67%)</title><rect x="537.1" y="485" width="645.0" height="15.0" fill="rgb(250,210,50)" rx="2" ry="2" />
<text  x="540.07" y="495.5" >evaluator.lua:infer</text>
</g>
<g >
<title>evaluator.lua:infer (37 samples, 24.67%)</title><rect x="891.1" y="373" width="291.0" height="15.0" fill="rgb(250,210,50)" rx="2" ry="2" />
<text  x="894.07" y="383.5" >evaluator.lua:infer</text>
</g>
<g >
<title>evaluator.lua:infer (8 samples, 5.33%)</title><rect x="10.0" y="869" width="62.9" height="15.0" fill="rgb(250,210,50)" rx="2" ry="2" />
<text  x="13.00" y="879.5" >evalua..</text>
</g>
<g >
<title>[string]:__eq (8 samples, 5.33%)</title><rect x="10.0" y="37" width="62.9" height="15.0" fill="rgb(207,11,2)" rx="2" ry="2" />
<text  x="13.00" y="47.5" >[strin..</text>
</g>
<g >
<title>[string]:__eq (8 samples, 5.33%)</title><rect x="238.1" y="405" width="63.0" height="15.0" fill="rgb(207,11,2)" rx="2" ry="2" />
<text  x="241.13" y="415.5" >[strin..</text>
</g>
<g >
<title>evaluator.lua:infer (128 samples, 85.33%)</title><rect x="175.2" y="661" width="1006.9" height="15.0" fill="rgb(250,210,50)" rx="2" ry="2" />
<text  x="178.20" y="671.5" >evaluator.lua:infer</text>
</g>
<g >
<title>evaluator.lua:infer (123 samples, 82.00%)</title><rect x="214.5" y="645" width="967.6" height="15.0" fill="rgb(250,210,50)" rx="2" ry="2" />
<text  x="217.53" y="655.5" >evaluator.lua:infer</text>
</g>
<g >
<title>runtest.lua:fn (8 samples, 5.33%)</title><rect x="10.0" y="1093" width="62.9" height="15.0" fill="rgb(245,185,44)" rx="2" ry="2" />
<text  x="13.00" y="1103.5" >runtes..</text>
</g>
<g >
<title>evaluator.lua:infer (8 samples, 5.33%)</title><rect x="10.0" y="613" width="62.9" height="15.0" fill="rgb(250,210,50)" rx="2" ry="2" />
<text  x="13.00" y="623.5" >evalua..</text>
</g>
<g >
<title>evaluator.lua:infer (140 samples, 93.33%)</title><rect x="80.8" y="1045" width="1101.3" height="15.0" fill="rgb(250,210,50)" rx="2" ry="2" />
<text  x="83.80" y="1055.5" >evaluator.lua:infer</text>
</g>
<g >
<title>evaluator.lua:infer (8 samples, 5.33%)</title><rect x="10.0" y="389" width="62.9" height="15.0" fill="rgb(250,210,50)" rx="2" ry="2" />
<text  x="13.00" y="399.5" >evalua..</text>
</g>
<g >
<title>evaluator.lua:infer (8 samples, 5.33%)</title><rect x="10.0" y="309" width="62.9" height="15.0" fill="rgb(250,210,50)" rx="2" ry="2" />
<text  x="13.00" y="319.5" >evalua..</text>
</g>
<g >
<title>evaluator.lua:infer (138 samples, 92.00%)</title><rect x="96.5" y="821" width="1085.6" height="15.0" fill="rgb(250,210,50)" rx="2" ry="2" />
<text  x="99.53" y="831.5" >evaluator.lua:infer</text>
</g>
<g >
<title>evaluator.lua:check (9 samples, 6.00%)</title><rect x="906.8" y="341" width="70.8" height="15.0" fill="rgb(242,174,41)" rx="2" ry="2" />
<text  x="909.80" y="351.5" >evaluat..</text>
</g>
</g>
</svg>
